<?xml version="1.0" encoding="utf-8"?>
<svg version="1.1" xmlns:xlink="http://www.w3.org/1999/xlink" width="112px" height="104px" xmlns="http://www.w3.org/2000/svg">
  <defs>
    <pattern id="BGPattern" patternUnits="userSpaceOnUse" alignment="0 0" imageRepeat="None" />
    <mask fill="white" id="Clip33">
      <path d="M 29.866666666666667 37.14285714285714  C 29.866666666666667 42.52083333333333  31.441666666666663 47.473214285714285  34.59166666666667 52  C 28.291666666666668 52.19345238095238  23.13888888888889 54.66964285714285  19.133333333333333 59.42857142857142  L 11.316666666666666 59.42857142857142  C 8.127777777777776 59.42857142857142  5.4444444444444455 58.645089285714285  3.2666666666666666 57.078125  C 1.0888888888888888 55.511160714285715  0 53.21875  0 50.20089285714286  C 0 36.54315476190475  2.4111111111111105 29.71428571428571  7.233333333333334 29.71428571428571  C 7.466666666666667 29.71428571428571  8.3125 30.12053571428571  9.770833333333332 30.93303571428571  C 11.229166666666668 31.74553571428571  13.125 32.56770833333333  15.458333333333334 33.39955357142858  C 17.791666666666664 34.23139880952381  20.105555555555554 34.64732142857142  22.400000000000002 34.64732142857142  C 25.005555555555556 34.64732142857142  27.59166666666667 34.20238095238095  30.158333333333335 33.3125  C 29.963888888888892 34.744047619047606  29.866666666666667 36.02083333333333  29.866666666666667 37.14285714285714  Z M 96.8625 82.96205357142857  C 96.99861111111112 84.91592261904762  97.06666666666666 86.91815476190476  97.06666666666666 88.96875  C 97.06666666666666 93.61160714285714  95.64722222222223 97.27752976190476  92.80833333333334 99.96651785714286  C 89.96944444444446 102.65550595238095  86.19722222222222 104  81.49166666666667 104  L 30.508333333333333 104  C 25.80277777777778 104  22.030555555555562 102.65550595238095  19.191666666666666 99.96651785714286  C 16.352777777777778 97.27752976190476  14.933333333333334 93.61160714285714  14.933333333333334 88.96875  C 14.933333333333334 86.91815476190476  15.00138888888889 84.91592261904762  15.137500000000001 82.96205357142857  C 15.273611111111114 81.00818452380952  15.545833333333333 78.89955357142857  15.954166666666667 76.63616071428571  C 16.3625 74.37276785714285  16.87777777777778 72.27380952380952  17.5 70.33928571428571  C 18.122222222222224 68.4047619047619  18.958333333333336 66.51860119047618  20.008333333333333 64.68080357142857  C 21.058333333333334 62.84300595238095  22.26388888888889 61.27604166666666  23.625 59.979910714285715  C 24.986111111111114 58.683779761904766  26.648611111111116 57.64880952380952  28.612500000000004 56.875  C 30.576388888888893 56.10119047619047  32.74444444444445 55.714285714285715  35.11666666666667 55.714285714285715  C 35.50555555555556 55.714285714285715  36.34166666666667 56.13020833333333  37.625 56.96205357142858  C 38.90833333333333 57.79389880952381  40.327777777777776 58.722470238095234  41.88333333333333 59.74776785714285  C 43.4388888888889 60.77306547619047  45.519444444444446 61.70163690476189  48.125 62.53348214285715  C 50.73055555555556 63.36532738095238  53.35555555555556 63.78125  56 63.78125  C 58.644444444444446 63.78125  61.269444444444446 63.36532738095238  63.875 62.53348214285715  C 66.48055555555557 61.70163690476189  68.56111111111112 60.77306547619047  70.11666666666667 59.74776785714285  C 71.67222222222222 58.722470238095234  73.09166666666667 57.79389880952381  74.375 56.96205357142858  C 75.65833333333333 56.13020833333333  76.49444444444445 55.714285714285715  76.88333333333333 55.714285714285715  C 79.25555555555556 55.714285714285715  81.42361111111113 56.10119047619047  83.3875 56.875  C 85.35138888888889 57.64880952380952  87.01388888888889 58.683779761904766  88.375 59.979910714285715  C 89.73611111111113 61.27604166666666  90.94166666666666 62.84300595238095  91.99166666666667 64.68080357142857  C 93.04166666666666 66.51860119047618  93.8777777777778 68.4047619047619  94.5 70.33928571428571  C 95.12222222222223 72.27380952380952  95.6375 74.37276785714285  96.04583333333333 76.63616071428571  C 96.45416666666667 78.89955357142857  96.72638888888889 81.00818452380952  96.8625 82.96205357142857  Z M 32.95833333333333 4.352678571428575  C 35.875 7.254464285714287  37.33333333333333 10.755952380952372  37.33333333333333 14.857142857142861  C 37.33333333333333 18.95833333333333  35.875 22.459821428571423  32.95833333333333 25.36160714285714  C 30.041666666666668 28.26339285714286  26.522222222222226 29.71428571428571  22.400000000000002 29.71428571428571  C 18.277777777777782 29.71428571428571  14.758333333333333 28.26339285714286  11.841666666666667 25.36160714285714  C 8.924999999999999 22.459821428571423  7.466666666666667 18.95833333333333  7.466666666666667 14.857142857142861  C 7.466666666666667 10.755952380952372  8.924999999999999 7.254464285714287  11.841666666666667 4.352678571428575  C 14.758333333333333 1.450892857142862  18.277777777777782 0  22.400000000000002 0  C 26.522222222222226 0  30.041666666666668 1.450892857142862  32.95833333333333 4.352678571428575  Z M 71.83749999999999 21.38616071428571  C 76.21249999999999 25.73883928571429  78.39999999999999 30.991071428571423  78.39999999999999 37.14285714285714  C 78.39999999999999 43.29464285714286  76.21249999999999 48.546875  71.83749999999999 52.89955357142858  C 67.46249999999999 57.25223214285715  62.18333333333333 59.42857142857142  56 59.42857142857142  C 49.81666666666668 59.42857142857142  44.53750000000001 57.25223214285715  40.1625 52.89955357142858  C 35.7875 48.546875  33.6 43.29464285714286  33.6 37.14285714285714  C 33.6 30.991071428571423  35.7875 25.73883928571429  40.1625 21.38616071428571  C 44.53750000000001 17.03348214285714  49.81666666666668 14.857142857142861  56 14.857142857142861  C 62.18333333333333 14.857142857142861  67.46249999999999 17.03348214285714  71.83749999999999 21.38616071428571  Z M 104.76666666666667 29.71428571428571  C 109.5888888888889 29.71428571428571  112.00000000000003 36.54315476190475  112 50.20089285714286  C 112.00000000000003 53.21875  110.91111111111111 55.511160714285715  108.73333333333333 57.078125  C 106.55555555555556 58.645089285714285  103.87222222222223 59.42857142857142  100.68333333333334 59.42857142857142  L 92.86666666666667 59.42857142857142  C 88.86111111111113 54.66964285714285  83.70833333333334 52.19345238095238  77.40833333333333 52  C 80.55833333333334 47.473214285714285  82.13333333333333 42.52083333333333  82.13333333333333 37.14285714285714  C 82.13333333333333 36.02083333333333  82.03611111111111 34.744047619047606  81.84166666666667 33.3125  C 84.40833333333333 34.20238095238095  86.99444444444445 34.64732142857142  89.60000000000001 34.64732142857142  C 91.89444444444445 34.64732142857142  94.20833333333334 34.23139880952381  96.54166666666666 33.39955357142858  C 98.875 32.56770833333333  100.77083333333334 31.74553571428571  102.22916666666666 30.93303571428571  C 103.6875 30.12053571428571  104.53333333333333 29.71428571428571  104.76666666666667 29.71428571428571  Z M 100.15833333333333 4.352678571428575  C 103.075 7.254464285714287  104.53333333333333 10.755952380952372  104.53333333333333 14.857142857142861  C 104.53333333333333 18.95833333333333  103.075 22.459821428571423  100.15833333333333 25.36160714285714  C 97.24166666666667 28.26339285714286  93.72222222222223 29.71428571428571  89.60000000000001 29.71428571428571  C 85.47777777777779 29.71428571428571  81.95833333333334 28.26339285714286  79.04166666666666 25.36160714285714  C 76.125 22.459821428571423  74.66666666666666 18.95833333333333  74.66666666666666 14.857142857142861  C 74.66666666666666 10.755952380952372  76.125 7.254464285714287  79.04166666666666 4.352678571428575  C 81.95833333333334 1.450892857142862  85.47777777777779 0  89.60000000000001 0  C 93.72222222222223 0  97.24166666666667 1.450892857142862  100.15833333333333 4.352678571428575  Z " fill-rule="evenodd" />
    </mask>
  </defs>
  <g transform="matrix(1 0 0 1 -392 -1365 )">
    <path d="M 29.866666666666667 37.14285714285714  C 29.866666666666667 42.52083333333333  31.441666666666663 47.473214285714285  34.59166666666667 52  C 28.291666666666668 52.19345238095238  23.13888888888889 54.66964285714285  19.133333333333333 59.42857142857142  L 11.316666666666666 59.42857142857142  C 8.127777777777776 59.42857142857142  5.4444444444444455 58.645089285714285  3.2666666666666666 57.078125  C 1.0888888888888888 55.511160714285715  0 53.21875  0 50.20089285714286  C 0 36.54315476190475  2.4111111111111105 29.71428571428571  7.233333333333334 29.71428571428571  C 7.466666666666667 29.71428571428571  8.3125 30.12053571428571  9.770833333333332 30.93303571428571  C 11.229166666666668 31.74553571428571  13.125 32.56770833333333  15.458333333333334 33.39955357142858  C 17.791666666666664 34.23139880952381  20.105555555555554 34.64732142857142  22.400000000000002 34.64732142857142  C 25.005555555555556 34.64732142857142  27.59166666666667 34.20238095238095  30.158333333333335 33.3125  C 29.963888888888892 34.744047619047606  29.866666666666667 36.02083333333333  29.866666666666667 37.14285714285714  Z M 96.8625 82.96205357142857  C 96.99861111111112 84.91592261904762  97.06666666666666 86.91815476190476  97.06666666666666 88.96875  C 97.06666666666666 93.61160714285714  95.64722222222223 97.27752976190476  92.80833333333334 99.96651785714286  C 89.96944444444446 102.65550595238095  86.19722222222222 104  81.49166666666667 104  L 30.508333333333333 104  C 25.80277777777778 104  22.030555555555562 102.65550595238095  19.191666666666666 99.96651785714286  C 16.352777777777778 97.27752976190476  14.933333333333334 93.61160714285714  14.933333333333334 88.96875  C 14.933333333333334 86.91815476190476  15.00138888888889 84.91592261904762  15.137500000000001 82.96205357142857  C 15.273611111111114 81.00818452380952  15.545833333333333 78.89955357142857  15.954166666666667 76.63616071428571  C 16.3625 74.37276785714285  16.87777777777778 72.27380952380952  17.5 70.33928571428571  C 18.122222222222224 68.4047619047619  18.958333333333336 66.51860119047618  20.008333333333333 64.68080357142857  C 21.058333333333334 62.84300595238095  22.26388888888889 61.27604166666666  23.625 59.979910714285715  C 24.986111111111114 58.683779761904766  26.648611111111116 57.64880952380952  28.612500000000004 56.875  C 30.576388888888893 56.10119047619047  32.74444444444445 55.714285714285715  35.11666666666667 55.714285714285715  C 35.50555555555556 55.714285714285715  36.34166666666667 56.13020833333333  37.625 56.96205357142858  C 38.90833333333333 57.79389880952381  40.327777777777776 58.722470238095234  41.88333333333333 59.74776785714285  C 43.4388888888889 60.77306547619047  45.519444444444446 61.70163690476189  48.125 62.53348214285715  C 50.73055555555556 63.36532738095238  53.35555555555556 63.78125  56 63.78125  C 58.644444444444446 63.78125  61.269444444444446 63.36532738095238  63.875 62.53348214285715  C 66.48055555555557 61.70163690476189  68.56111111111112 60.77306547619047  70.11666666666667 59.74776785714285  C 71.67222222222222 58.722470238095234  73.09166666666667 57.79389880952381  74.375 56.96205357142858  C 75.65833333333333 56.13020833333333  76.49444444444445 55.714285714285715  76.88333333333333 55.714285714285715  C 79.25555555555556 55.714285714285715  81.42361111111113 56.10119047619047  83.3875 56.875  C 85.35138888888889 57.64880952380952  87.01388888888889 58.683779761904766  88.375 59.979910714285715  C 89.73611111111113 61.27604166666666  90.94166666666666 62.84300595238095  91.99166666666667 64.68080357142857  C 93.04166666666666 66.51860119047618  93.8777777777778 68.4047619047619  94.5 70.33928571428571  C 95.12222222222223 72.27380952380952  95.6375 74.37276785714285  96.04583333333333 76.63616071428571  C 96.45416666666667 78.89955357142857  96.72638888888889 81.00818452380952  96.8625 82.96205357142857  Z M 32.95833333333333 4.352678571428575  C 35.875 7.254464285714287  37.33333333333333 10.755952380952372  37.33333333333333 14.857142857142861  C 37.33333333333333 18.95833333333333  35.875 22.459821428571423  32.95833333333333 25.36160714285714  C 30.041666666666668 28.26339285714286  26.522222222222226 29.71428571428571  22.400000000000002 29.71428571428571  C 18.277777777777782 29.71428571428571  14.758333333333333 28.26339285714286  11.841666666666667 25.36160714285714  C 8.924999999999999 22.459821428571423  7.466666666666667 18.95833333333333  7.466666666666667 14.857142857142861  C 7.466666666666667 10.755952380952372  8.924999999999999 7.254464285714287  11.841666666666667 4.352678571428575  C 14.758333333333333 1.450892857142862  18.277777777777782 0  22.400000000000002 0  C 26.522222222222226 0  30.041666666666668 1.450892857142862  32.95833333333333 4.352678571428575  Z M 71.83749999999999 21.38616071428571  C 76.21249999999999 25.73883928571429  78.39999999999999 30.991071428571423  78.39999999999999 37.14285714285714  C 78.39999999999999 43.29464285714286  76.21249999999999 48.546875  71.83749999999999 52.89955357142858  C 67.46249999999999 57.25223214285715  62.18333333333333 59.42857142857142  56 59.42857142857142  C 49.81666666666668 59.42857142857142  44.53750000000001 57.25223214285715  40.1625 52.89955357142858  C 35.7875 48.546875  33.6 43.29464285714286  33.6 37.14285714285714  C 33.6 30.991071428571423  35.7875 25.73883928571429  40.1625 21.38616071428571  C 44.53750000000001 17.03348214285714  49.81666666666668 14.857142857142861  56 14.857142857142861  C 62.18333333333333 14.857142857142861  67.46249999999999 17.03348214285714  71.83749999999999 21.38616071428571  Z M 104.76666666666667 29.71428571428571  C 109.5888888888889 29.71428571428571  112.00000000000003 36.54315476190475  112 50.20089285714286  C 112.00000000000003 53.21875  110.91111111111111 55.511160714285715  108.73333333333333 57.078125  C 106.55555555555556 58.645089285714285  103.87222222222223 59.42857142857142  100.68333333333334 59.42857142857142  L 92.86666666666667 59.42857142857142  C 88.86111111111113 54.66964285714285  83.70833333333334 52.19345238095238  77.40833333333333 52  C 80.55833333333334 47.473214285714285  82.13333333333333 42.52083333333333  82.13333333333333 37.14285714285714  C 82.13333333333333 36.02083333333333  82.03611111111111 34.744047619047606  81.84166666666667 33.3125  C 84.40833333333333 34.20238095238095  86.99444444444445 34.64732142857142  89.60000000000001 34.64732142857142  C 91.89444444444445 34.64732142857142  94.20833333333334 34.23139880952381  96.54166666666666 33.39955357142858  C 98.875 32.56770833333333  100.77083333333334 31.74553571428571  102.22916666666666 30.93303571428571  C 103.6875 30.12053571428571  104.53333333333333 29.71428571428571  104.76666666666667 29.71428571428571  Z M 100.15833333333333 4.352678571428575  C 103.075 7.254464285714287  104.53333333333333 10.755952380952372  104.53333333333333 14.857142857142861  C 104.53333333333333 18.95833333333333  103.075 22.459821428571423  100.15833333333333 25.36160714285714  C 97.24166666666667 28.26339285714286  93.72222222222223 29.71428571428571  89.60000000000001 29.71428571428571  C 85.47777777777779 29.71428571428571  81.95833333333334 28.26339285714286  79.04166666666666 25.36160714285714  C 76.125 22.459821428571423  74.66666666666666 18.95833333333333  74.66666666666666 14.857142857142861  C 74.66666666666666 10.755952380952372  76.125 7.254464285714287  79.04166666666666 4.352678571428575  C 81.95833333333334 1.450892857142862  85.47777777777779 0  89.60000000000001 0  C 93.72222222222223 0  97.24166666666667 1.450892857142862  100.15833333333333 4.352678571428575  Z " fill-rule="nonzero" fill="rgba(0, 0, 0, 1)" stroke="none" transform="matrix(1 0 0 1 392 1365 )" class="fill" />
    <path d="M 29.866666666666667 37.14285714285714  C 29.866666666666667 42.52083333333333  31.441666666666663 47.473214285714285  34.59166666666667 52  C 28.291666666666668 52.19345238095238  23.13888888888889 54.66964285714285  19.133333333333333 59.42857142857142  L 11.316666666666666 59.42857142857142  C 8.127777777777776 59.42857142857142  5.4444444444444455 58.645089285714285  3.2666666666666666 57.078125  C 1.0888888888888888 55.511160714285715  0 53.21875  0 50.20089285714286  C 0 36.54315476190475  2.4111111111111105 29.71428571428571  7.233333333333334 29.71428571428571  C 7.466666666666667 29.71428571428571  8.3125 30.12053571428571  9.770833333333332 30.93303571428571  C 11.229166666666668 31.74553571428571  13.125 32.56770833333333  15.458333333333334 33.39955357142858  C 17.791666666666664 34.23139880952381  20.105555555555554 34.64732142857142  22.400000000000002 34.64732142857142  C 25.005555555555556 34.64732142857142  27.59166666666667 34.20238095238095  30.158333333333335 33.3125  C 29.963888888888892 34.744047619047606  29.866666666666667 36.02083333333333  29.866666666666667 37.14285714285714  Z " stroke-width="0" stroke-dasharray="0" stroke="rgba(255, 255, 255, 0)" fill="none" transform="matrix(1 0 0 1 392 1365 )" class="stroke" mask="url(#Clip33)" />
    <path d="M 96.8625 82.96205357142857  C 96.99861111111112 84.91592261904762  97.06666666666666 86.91815476190476  97.06666666666666 88.96875  C 97.06666666666666 93.61160714285714  95.64722222222223 97.27752976190476  92.80833333333334 99.96651785714286  C 89.96944444444446 102.65550595238095  86.19722222222222 104  81.49166666666667 104  L 30.508333333333333 104  C 25.80277777777778 104  22.030555555555562 102.65550595238095  19.191666666666666 99.96651785714286  C 16.352777777777778 97.27752976190476  14.933333333333334 93.61160714285714  14.933333333333334 88.96875  C 14.933333333333334 86.91815476190476  15.00138888888889 84.91592261904762  15.137500000000001 82.96205357142857  C 15.273611111111114 81.00818452380952  15.545833333333333 78.89955357142857  15.954166666666667 76.63616071428571  C 16.3625 74.37276785714285  16.87777777777778 72.27380952380952  17.5 70.33928571428571  C 18.122222222222224 68.4047619047619  18.958333333333336 66.51860119047618  20.008333333333333 64.68080357142857  C 21.058333333333334 62.84300595238095  22.26388888888889 61.27604166666666  23.625 59.979910714285715  C 24.986111111111114 58.683779761904766  26.648611111111116 57.64880952380952  28.612500000000004 56.875  C 30.576388888888893 56.10119047619047  32.74444444444445 55.714285714285715  35.11666666666667 55.714285714285715  C 35.50555555555556 55.714285714285715  36.34166666666667 56.13020833333333  37.625 56.96205357142858  C 38.90833333333333 57.79389880952381  40.327777777777776 58.722470238095234  41.88333333333333 59.74776785714285  C 43.4388888888889 60.77306547619047  45.519444444444446 61.70163690476189  48.125 62.53348214285715  C 50.73055555555556 63.36532738095238  53.35555555555556 63.78125  56 63.78125  C 58.644444444444446 63.78125  61.269444444444446 63.36532738095238  63.875 62.53348214285715  C 66.48055555555557 61.70163690476189  68.56111111111112 60.77306547619047  70.11666666666667 59.74776785714285  C 71.67222222222222 58.722470238095234  73.09166666666667 57.79389880952381  74.375 56.96205357142858  C 75.65833333333333 56.13020833333333  76.49444444444445 55.714285714285715  76.88333333333333 55.714285714285715  C 79.25555555555556 55.714285714285715  81.42361111111113 56.10119047619047  83.3875 56.875  C 85.35138888888889 57.64880952380952  87.01388888888889 58.683779761904766  88.375 59.979910714285715  C 89.73611111111113 61.27604166666666  90.94166666666666 62.84300595238095  91.99166666666667 64.68080357142857  C 93.04166666666666 66.51860119047618  93.8777777777778 68.4047619047619  94.5 70.33928571428571  C 95.12222222222223 72.27380952380952  95.6375 74.37276785714285  96.04583333333333 76.63616071428571  C 96.45416666666667 78.89955357142857  96.72638888888889 81.00818452380952  96.8625 82.96205357142857  Z " stroke-width="0" stroke-dasharray="0" stroke="rgba(255, 255, 255, 0)" fill="none" transform="matrix(1 0 0 1 392 1365 )" class="stroke" mask="url(#Clip33)" />
    <path d="M 32.95833333333333 4.352678571428575  C 35.875 7.254464285714287  37.33333333333333 10.755952380952372  37.33333333333333 14.857142857142861  C 37.33333333333333 18.95833333333333  35.875 22.459821428571423  32.95833333333333 25.36160714285714  C 30.041666666666668 28.26339285714286  26.522222222222226 29.71428571428571  22.400000000000002 29.71428571428571  C 18.277777777777782 29.71428571428571  14.758333333333333 28.26339285714286  11.841666666666667 25.36160714285714  C 8.924999999999999 22.459821428571423  7.466666666666667 18.95833333333333  7.466666666666667 14.857142857142861  C 7.466666666666667 10.755952380952372  8.924999999999999 7.254464285714287  11.841666666666667 4.352678571428575  C 14.758333333333333 1.450892857142862  18.277777777777782 0  22.400000000000002 0  C 26.522222222222226 0  30.041666666666668 1.450892857142862  32.95833333333333 4.352678571428575  Z " stroke-width="0" stroke-dasharray="0" stroke="rgba(255, 255, 255, 0)" fill="none" transform="matrix(1 0 0 1 392 1365 )" class="stroke" mask="url(#Clip33)" />
    <path d="M 71.83749999999999 21.38616071428571  C 76.21249999999999 25.73883928571429  78.39999999999999 30.991071428571423  78.39999999999999 37.14285714285714  C 78.39999999999999 43.29464285714286  76.21249999999999 48.546875  71.83749999999999 52.89955357142858  C 67.46249999999999 57.25223214285715  62.18333333333333 59.42857142857142  56 59.42857142857142  C 49.81666666666668 59.42857142857142  44.53750000000001 57.25223214285715  40.1625 52.89955357142858  C 35.7875 48.546875  33.6 43.29464285714286  33.6 37.14285714285714  C 33.6 30.991071428571423  35.7875 25.73883928571429  40.1625 21.38616071428571  C 44.53750000000001 17.03348214285714  49.81666666666668 14.857142857142861  56 14.857142857142861  C 62.18333333333333 14.857142857142861  67.46249999999999 17.03348214285714  71.83749999999999 21.38616071428571  Z " stroke-width="0" stroke-dasharray="0" stroke="rgba(255, 255, 255, 0)" fill="none" transform="matrix(1 0 0 1 392 1365 )" class="stroke" mask="url(#Clip33)" />
    <path d="M 104.76666666666667 29.71428571428571  C 109.5888888888889 29.71428571428571  112.00000000000003 36.54315476190475  112 50.20089285714286  C 112.00000000000003 53.21875  110.91111111111111 55.511160714285715  108.73333333333333 57.078125  C 106.55555555555556 58.645089285714285  103.87222222222223 59.42857142857142  100.68333333333334 59.42857142857142  L 92.86666666666667 59.42857142857142  C 88.86111111111113 54.66964285714285  83.70833333333334 52.19345238095238  77.40833333333333 52  C 80.55833333333334 47.473214285714285  82.13333333333333 42.52083333333333  82.13333333333333 37.14285714285714  C 82.13333333333333 36.02083333333333  82.03611111111111 34.744047619047606  81.84166666666667 33.3125  C 84.40833333333333 34.20238095238095  86.99444444444445 34.64732142857142  89.60000000000001 34.64732142857142  C 91.89444444444445 34.64732142857142  94.20833333333334 34.23139880952381  96.54166666666666 33.39955357142858  C 98.875 32.56770833333333  100.77083333333334 31.74553571428571  102.22916666666666 30.93303571428571  C 103.6875 30.12053571428571  104.53333333333333 29.71428571428571  104.76666666666667 29.71428571428571  Z " stroke-width="0" stroke-dasharray="0" stroke="rgba(255, 255, 255, 0)" fill="none" transform="matrix(1 0 0 1 392 1365 )" class="stroke" mask="url(#Clip33)" />
    <path d="M 100.15833333333333 4.352678571428575  C 103.075 7.254464285714287  104.53333333333333 10.755952380952372  104.53333333333333 14.857142857142861  C 104.53333333333333 18.95833333333333  103.075 22.459821428571423  100.15833333333333 25.36160714285714  C 97.24166666666667 28.26339285714286  93.72222222222223 29.71428571428571  89.60000000000001 29.71428571428571  C 85.47777777777779 29.71428571428571  81.95833333333334 28.26339285714286  79.04166666666666 25.36160714285714  C 76.125 22.459821428571423  74.66666666666666 18.95833333333333  74.66666666666666 14.857142857142861  C 74.66666666666666 10.755952380952372  76.125 7.254464285714287  79.04166666666666 4.352678571428575  C 81.95833333333334 1.450892857142862  85.47777777777779 0  89.60000000000001 0  C 93.72222222222223 0  97.24166666666667 1.450892857142862  100.15833333333333 4.352678571428575  Z " stroke-width="0" stroke-dasharray="0" stroke="rgba(255, 255, 255, 0)" fill="none" transform="matrix(1 0 0 1 392 1365 )" class="stroke" mask="url(#Clip33)" />
  </g>
</svg>