<?xml version="1.0" encoding="utf-8"?>
<svg version="1.1" xmlns:xlink="http://www.w3.org/1999/xlink" width="112px" height="108px" xmlns="http://www.w3.org/2000/svg">
  <defs>
    <pattern id="BGPattern" patternUnits="userSpaceOnUse" alignment="0 0" imageRepeat="None" />
    <mask fill="white" id="Clip34">
      <path d="M 50 8.307692307692303  L 50 57.764423076923066  L 85.16666666666666 93.20192307692307  C 80.58641975308643 97.875  75.2391975308642 101.50961538461539  69.125 104.10576923076923  C 63.01080246913581 106.70192307692308  56.56172839506173 108  49.77777777777777 108  C 40.74691358024692 108  32.418209876543216 105.77163461538461  24.791666666666664 101.31490384615385  C 17.165123456790127 96.85817307692308  11.126543209876544 90.81129807692308  6.675925925925926 83.17427884615385  C 2.2253086419753085 75.53725961538461  0 67.19711538461539  0 58.15384615384615  C 0 49.11057692307691  2.2253086419753085 40.77043269230768  6.675925925925926 33.13341346153847  C 11.126543209876544 25.49639423076923  17.165123456790127 19.449519230769226  24.791666666666664 14.992788461538465  C 32.418209876543216 10.536057692307683  40.74691358024692 8.307692307692303  50 8.307692307692303  Z M 97.22222222222223 93.59134615384615  L 61.89814814814815 58  L 112 58  C 112.00000000000003 64.94711538461539  110.70370370370372 71.40504807692307  108.11111111111111 77.52764423076923  C 105.51851851851853 83.65024038461539  101.8888888888889 89.00480769230768  97.22222222222223 93.59134615384615  Z M 101.17592592592592 24.82572115384615  C 105.62654320987654 32.46274038461537  107.85185185185185 40.802884615384606  107.85185185185185 50  L 58 50  L 58 0  C 67.10493827160495 0  75.43364197530865 2.2283653846153917  83.06018518518519 6.6850961538461515  C 90.68672839506172 11.141826923076911  96.72530864197532 17.188701923076913  101.17592592592592 24.82572115384615  Z " fill-rule="evenodd" />
    </mask>
  </defs>
  <g transform="matrix(1 0 0 1 -831 -1092 )">
    <path d="M 50 8.307692307692303  L 50 57.764423076923066  L 85.16666666666666 93.20192307692307  C 80.58641975308643 97.875  75.2391975308642 101.50961538461539  69.125 104.10576923076923  C 63.01080246913581 106.70192307692308  56.56172839506173 108  49.77777777777777 108  C 40.74691358024692 108  32.418209876543216 105.77163461538461  24.791666666666664 101.31490384615385  C 17.165123456790127 96.85817307692308  11.126543209876544 90.81129807692308  6.675925925925926 83.17427884615385  C 2.2253086419753085 75.53725961538461  0 67.19711538461539  0 58.15384615384615  C 0 49.11057692307691  2.2253086419753085 40.77043269230768  6.675925925925926 33.13341346153847  C 11.126543209876544 25.49639423076923  17.165123456790127 19.449519230769226  24.791666666666664 14.992788461538465  C 32.418209876543216 10.536057692307683  40.74691358024692 8.307692307692303  50 8.307692307692303  Z M 97.22222222222223 93.59134615384615  L 61.89814814814815 58  L 112 58  C 112.00000000000003 64.94711538461539  110.70370370370372 71.40504807692307  108.11111111111111 77.52764423076923  C 105.51851851851853 83.65024038461539  101.8888888888889 89.00480769230768  97.22222222222223 93.59134615384615  Z M 101.17592592592592 24.82572115384615  C 105.62654320987654 32.46274038461537  107.85185185185185 40.802884615384606  107.85185185185185 50  L 58 50  L 58 0  C 67.10493827160495 0  75.43364197530865 2.2283653846153917  83.06018518518519 6.6850961538461515  C 90.68672839506172 11.141826923076911  96.72530864197532 17.188701923076913  101.17592592592592 24.82572115384615  Z " fill-rule="nonzero" fill="rgba(0, 0, 0, 1)" stroke="none" transform="matrix(1 0 0 1 831 1092 )" class="fill" />
    <path d="M 50 8.307692307692303  L 50 57.764423076923066  L 85.16666666666666 93.20192307692307  C 80.58641975308643 97.875  75.2391975308642 101.50961538461539  69.125 104.10576923076923  C 63.01080246913581 106.70192307692308  56.56172839506173 108  49.77777777777777 108  C 40.74691358024692 108  32.418209876543216 105.77163461538461  24.791666666666664 101.31490384615385  C 17.165123456790127 96.85817307692308  11.126543209876544 90.81129807692308  6.675925925925926 83.17427884615385  C 2.2253086419753085 75.53725961538461  0 67.19711538461539  0 58.15384615384615  C 0 49.11057692307691  2.2253086419753085 40.77043269230768  6.675925925925926 33.13341346153847  C 11.126543209876544 25.49639423076923  17.165123456790127 19.449519230769226  24.791666666666664 14.992788461538465  C 32.418209876543216 10.536057692307683  40.74691358024692 8.307692307692303  50 8.307692307692303  Z " stroke-width="0" stroke-dasharray="0" stroke="rgba(255, 255, 255, 0)" fill="none" transform="matrix(1 0 0 1 831 1092 )" class="stroke" mask="url(#Clip34)" />
    <path d="M 97.22222222222223 93.59134615384615  L 61.89814814814815 58  L 112 58  C 112.00000000000003 64.94711538461539  110.70370370370372 71.40504807692307  108.11111111111111 77.52764423076923  C 105.51851851851853 83.65024038461539  101.8888888888889 89.00480769230768  97.22222222222223 93.59134615384615  Z " stroke-width="0" stroke-dasharray="0" stroke="rgba(255, 255, 255, 0)" fill="none" transform="matrix(1 0 0 1 831 1092 )" class="stroke" mask="url(#Clip34)" />
    <path d="M 101.17592592592592 24.82572115384615  C 105.62654320987654 32.46274038461537  107.85185185185185 40.802884615384606  107.85185185185185 50  L 58 50  L 58 0  C 67.10493827160495 0  75.43364197530865 2.2283653846153917  83.06018518518519 6.6850961538461515  C 90.68672839506172 11.141826923076911  96.72530864197532 17.188701923076913  101.17592592592592 24.82572115384615  Z " stroke-width="0" stroke-dasharray="0" stroke="rgba(255, 255, 255, 0)" fill="none" transform="matrix(1 0 0 1 831 1092 )" class="stroke" mask="url(#Clip34)" />
  </g>
</svg>