<?xml version="1.0" encoding="utf-8"?>
<svg version="1.1" xmlns:xlink="http://www.w3.org/1999/xlink" width="112px" height="88px" xmlns="http://www.w3.org/2000/svg">
  <defs>
    <pattern id="BGPattern" patternUnits="userSpaceOnUse" alignment="0 0" imageRepeat="None" />
    <mask fill="white" id="Clip30">
      <path d="M 103.40625 79.40625  C 103.80208333333334 79.01041666666667  104 78.54166666666667  104 78  L 104 30.000000000000004  C 102.66666666666669 31.499999999999996  101.22916666666669 32.875  99.6875 34.125  C 88.52083333333334 42.70833333333333  79.64583333333334 49.75000000000001  73.0625 55.25000000000001  C 70.9375 57.04166666666666  69.20833333333334 58.4375  67.875 59.4375  C 66.54166666666667 60.4375  64.73958333333334 61.447916666666664  62.46875 62.46875000000001  C 60.19791666666667 63.48958333333333  58.0625 64  56.0625 64  L 56 64  L 55.9375 64  C 53.9375 64  51.802083333333336 63.48958333333333  49.53125 62.46875000000001  C 47.26041666666667 61.447916666666664  45.458333333333336 60.4375  44.125 59.4375  C 42.79166666666667 58.4375  41.0625 57.04166666666666  38.9375 55.25000000000001  C 32.35416666666667 49.75000000000001  23.47916666666667 42.70833333333333  12.3125 34.125  C 10.770833333333334 32.875  9.333333333333334 31.499999999999996  8 30.000000000000004  L 8 78  C 8 78.54166666666667  8.197916666666668 79.01041666666667  8.59375 79.40625  C 8.989583333333334 79.80208333333333  9.458333333333334 80  10 80  L 102 80  C 102.54166666666667 80  103.01041666666667 79.80208333333333  103.40625 79.40625  Z M 101.09375 20.531249999999996  C 103.03125 17.510416666666657  104 14.770833333333332  104 12.312499999999998  L 104 11.624999999999998  L 104 10.781250000000004  C 104 10.781250000000004  103.98958333333334 10.510416666666654  103.96875 9.96875  C 103.94791666666667 9.427083333333329  103.88541666666667 9.166666666666654  103.78125 9.187499999999996  C 103.67708333333334 9.208333333333332  103.5625 9.020833333333325  103.4375 8.625  C 103.3125 8.229166666666657  103.125 8.07291666666666  102.875 8.156249999999996  C 102.625 8.239583333333332  102.33333333333334 8.187499999999998  102 8  L 10 8  C 9.458333333333334 8.000000000000004  8.989583333333334 8.197916666666655  8.59375 8.59375  C 8.197916666666668 8.989583333333325  8 9.458333333333329  8 10  C 8 17.000000000000004  11.0625 22.916666666666654  17.1875 27.749999999999996  C 25.22916666666667 34.08333333333333  33.583333333333336 40.6875  42.25 47.5625  C 42.5 47.77083333333332  43.22916666666667 48.385416666666664  44.4375 49.40625000000001  C 45.645833333333336 50.42708333333333  46.60416666666667 51.20833333333332  47.3125 51.75000000000001  C 48.02083333333334 52.29166666666666  48.94791666666667 52.94791666666666  50.09375 53.71874999999999  C 51.239583333333336 54.48958333333333  52.29166666666667 55.0625  53.25 55.43749999999999  C 54.208333333333336 55.8125  55.10416666666667 56  55.9375 56  L 56 56  L 56.0625 56  C 56.89583333333334 56  57.79166666666667 55.8125  58.75 55.43749999999999  C 59.70833333333335 55.0625  60.760416666666664 54.48958333333333  61.90625 53.71874999999999  C 63.052083333333336 52.94791666666666  63.97916666666667 52.29166666666666  64.6875 51.75000000000001  C 65.39583333333334 51.20833333333332  66.35416666666667 50.42708333333333  67.5625 49.40625000000001  C 68.77083333333334 48.385416666666664  69.5 47.77083333333332  69.75 47.5625  C 78.41666666666667 40.6875  86.77083333333334 34.08333333333333  94.8125 27.749999999999996  C 97.0625 25.95833333333333  99.15625 23.55208333333333  101.09375 20.531249999999996  Z M 109.0625 2.9374999999999956  C 111.02083333333334 4.895833333333326  112 7.250000000000001  112 10  L 112 78  C 112 80.75  111.02083333333334 83.10416666666667  109.0625 85.0625  C 107.10416666666669 87.02083333333333  104.75000000000001 88  102 88  L 10 88  C 7.250000000000001 88  4.895833333333334 87.02083333333333  2.9375 85.0625  C 0.9791666666666667 83.10416666666667  0 80.75  0 78  L 0 10  C 0 7.250000000000001  0.9791666666666667 4.895833333333326  2.9375 2.9374999999999956  C 4.895833333333334 0.9791666666666554  7.250000000000001 0  10 0  L 102 0  C 104.75000000000001 0  107.10416666666669 0.9791666666666554  109.0625 2.9374999999999956  Z " fill-rule="evenodd" />
    </mask>
  </defs>
  <g transform="matrix(1 0 0 1 -685 -1365 )">
    <path d="M 103.40625 79.40625  C 103.80208333333334 79.01041666666667  104 78.54166666666667  104 78  L 104 30.000000000000004  C 102.66666666666669 31.499999999999996  101.22916666666669 32.875  99.6875 34.125  C 88.52083333333334 42.70833333333333  79.64583333333334 49.75000000000001  73.0625 55.25000000000001  C 70.9375 57.04166666666666  69.20833333333334 58.4375  67.875 59.4375  C 66.54166666666667 60.4375  64.73958333333334 61.447916666666664  62.46875 62.46875000000001  C 60.19791666666667 63.48958333333333  58.0625 64  56.0625 64  L 56 64  L 55.9375 64  C 53.9375 64  51.802083333333336 63.48958333333333  49.53125 62.46875000000001  C 47.26041666666667 61.447916666666664  45.458333333333336 60.4375  44.125 59.4375  C 42.79166666666667 58.4375  41.0625 57.04166666666666  38.9375 55.25000000000001  C 32.35416666666667 49.75000000000001  23.47916666666667 42.70833333333333  12.3125 34.125  C 10.770833333333334 32.875  9.333333333333334 31.499999999999996  8 30.000000000000004  L 8 78  C 8 78.54166666666667  8.197916666666668 79.01041666666667  8.59375 79.40625  C 8.989583333333334 79.80208333333333  9.458333333333334 80  10 80  L 102 80  C 102.54166666666667 80  103.01041666666667 79.80208333333333  103.40625 79.40625  Z M 101.09375 20.531249999999996  C 103.03125 17.510416666666657  104 14.770833333333332  104 12.312499999999998  L 104 11.624999999999998  L 104 10.781250000000004  C 104 10.781250000000004  103.98958333333334 10.510416666666654  103.96875 9.96875  C 103.94791666666667 9.427083333333329  103.88541666666667 9.166666666666654  103.78125 9.187499999999996  C 103.67708333333334 9.208333333333332  103.5625 9.020833333333325  103.4375 8.625  C 103.3125 8.229166666666657  103.125 8.07291666666666  102.875 8.156249999999996  C 102.625 8.239583333333332  102.33333333333334 8.187499999999998  102 8  L 10 8  C 9.458333333333334 8.000000000000004  8.989583333333334 8.197916666666655  8.59375 8.59375  C 8.197916666666668 8.989583333333325  8 9.458333333333329  8 10  C 8 17.000000000000004  11.0625 22.916666666666654  17.1875 27.749999999999996  C 25.22916666666667 34.08333333333333  33.583333333333336 40.6875  42.25 47.5625  C 42.5 47.77083333333332  43.22916666666667 48.385416666666664  44.4375 49.40625000000001  C 45.645833333333336 50.42708333333333  46.60416666666667 51.20833333333332  47.3125 51.75000000000001  C 48.02083333333334 52.29166666666666  48.94791666666667 52.94791666666666  50.09375 53.71874999999999  C 51.239583333333336 54.48958333333333  52.29166666666667 55.0625  53.25 55.43749999999999  C 54.208333333333336 55.8125  55.10416666666667 56  55.9375 56  L 56 56  L 56.0625 56  C 56.89583333333334 56  57.79166666666667 55.8125  58.75 55.43749999999999  C 59.70833333333335 55.0625  60.760416666666664 54.48958333333333  61.90625 53.71874999999999  C 63.052083333333336 52.94791666666666  63.97916666666667 52.29166666666666  64.6875 51.75000000000001  C 65.39583333333334 51.20833333333332  66.35416666666667 50.42708333333333  67.5625 49.40625000000001  C 68.77083333333334 48.385416666666664  69.5 47.77083333333332  69.75 47.5625  C 78.41666666666667 40.6875  86.77083333333334 34.08333333333333  94.8125 27.749999999999996  C 97.0625 25.95833333333333  99.15625 23.55208333333333  101.09375 20.531249999999996  Z M 109.0625 2.9374999999999956  C 111.02083333333334 4.895833333333326  112 7.250000000000001  112 10  L 112 78  C 112 80.75  111.02083333333334 83.10416666666667  109.0625 85.0625  C 107.10416666666669 87.02083333333333  104.75000000000001 88  102 88  L 10 88  C 7.250000000000001 88  4.895833333333334 87.02083333333333  2.9375 85.0625  C 0.9791666666666667 83.10416666666667  0 80.75  0 78  L 0 10  C 0 7.250000000000001  0.9791666666666667 4.895833333333326  2.9375 2.9374999999999956  C 4.895833333333334 0.9791666666666554  7.250000000000001 0  10 0  L 102 0  C 104.75000000000001 0  107.10416666666669 0.9791666666666554  109.0625 2.9374999999999956  Z " fill-rule="nonzero" fill="rgba(0, 0, 0, 1)" stroke="none" transform="matrix(1 0 0 1 685 1365 )" class="fill" />
    <path d="M 103.40625 79.40625  C 103.80208333333334 79.01041666666667  104 78.54166666666667  104 78  L 104 30.000000000000004  C 102.66666666666669 31.499999999999996  101.22916666666669 32.875  99.6875 34.125  C 88.52083333333334 42.70833333333333  79.64583333333334 49.75000000000001  73.0625 55.25000000000001  C 70.9375 57.04166666666666  69.20833333333334 58.4375  67.875 59.4375  C 66.54166666666667 60.4375  64.73958333333334 61.447916666666664  62.46875 62.46875000000001  C 60.19791666666667 63.48958333333333  58.0625 64  56.0625 64  L 56 64  L 55.9375 64  C 53.9375 64  51.802083333333336 63.48958333333333  49.53125 62.46875000000001  C 47.26041666666667 61.447916666666664  45.458333333333336 60.4375  44.125 59.4375  C 42.79166666666667 58.4375  41.0625 57.04166666666666  38.9375 55.25000000000001  C 32.35416666666667 49.75000000000001  23.47916666666667 42.70833333333333  12.3125 34.125  C 10.770833333333334 32.875  9.333333333333334 31.499999999999996  8 30.000000000000004  L 8 78  C 8 78.54166666666667  8.197916666666668 79.01041666666667  8.59375 79.40625  C 8.989583333333334 79.80208333333333  9.458333333333334 80  10 80  L 102 80  C 102.54166666666667 80  103.01041666666667 79.80208333333333  103.40625 79.40625  Z " stroke-width="0" stroke-dasharray="0" stroke="rgba(255, 255, 255, 0)" fill="none" transform="matrix(1 0 0 1 685 1365 )" class="stroke" mask="url(#Clip30)" />
    <path d="M 101.09375 20.531249999999996  C 103.03125 17.510416666666657  104 14.770833333333332  104 12.312499999999998  L 104 11.624999999999998  L 104 10.781250000000004  C 104 10.781250000000004  103.98958333333334 10.510416666666654  103.96875 9.96875  C 103.94791666666667 9.427083333333329  103.88541666666667 9.166666666666654  103.78125 9.187499999999996  C 103.67708333333334 9.208333333333332  103.5625 9.020833333333325  103.4375 8.625  C 103.3125 8.229166666666657  103.125 8.07291666666666  102.875 8.156249999999996  C 102.625 8.239583333333332  102.33333333333334 8.187499999999998  102 8  L 10 8  C 9.458333333333334 8.000000000000004  8.989583333333334 8.197916666666655  8.59375 8.59375  C 8.197916666666668 8.989583333333325  8 9.458333333333329  8 10  C 8 17.000000000000004  11.0625 22.916666666666654  17.1875 27.749999999999996  C 25.22916666666667 34.08333333333333  33.583333333333336 40.6875  42.25 47.5625  C 42.5 47.77083333333332  43.22916666666667 48.385416666666664  44.4375 49.40625000000001  C 45.645833333333336 50.42708333333333  46.60416666666667 51.20833333333332  47.3125 51.75000000000001  C 48.02083333333334 52.29166666666666  48.94791666666667 52.94791666666666  50.09375 53.71874999999999  C 51.239583333333336 54.48958333333333  52.29166666666667 55.0625  53.25 55.43749999999999  C 54.208333333333336 55.8125  55.10416666666667 56  55.9375 56  L 56 56  L 56.0625 56  C 56.89583333333334 56  57.79166666666667 55.8125  58.75 55.43749999999999  C 59.70833333333335 55.0625  60.760416666666664 54.48958333333333  61.90625 53.71874999999999  C 63.052083333333336 52.94791666666666  63.97916666666667 52.29166666666666  64.6875 51.75000000000001  C 65.39583333333334 51.20833333333332  66.35416666666667 50.42708333333333  67.5625 49.40625000000001  C 68.77083333333334 48.385416666666664  69.5 47.77083333333332  69.75 47.5625  C 78.41666666666667 40.6875  86.77083333333334 34.08333333333333  94.8125 27.749999999999996  C 97.0625 25.95833333333333  99.15625 23.55208333333333  101.09375 20.531249999999996  Z " stroke-width="0" stroke-dasharray="0" stroke="rgba(255, 255, 255, 0)" fill="none" transform="matrix(1 0 0 1 685 1365 )" class="stroke" mask="url(#Clip30)" />
    <path d="M 109.0625 2.9374999999999956  C 111.02083333333334 4.895833333333326  112 7.250000000000001  112 10  L 112 78  C 112 80.75  111.02083333333334 83.10416666666667  109.0625 85.0625  C 107.10416666666669 87.02083333333333  104.75000000000001 88  102 88  L 10 88  C 7.250000000000001 88  4.895833333333334 87.02083333333333  2.9375 85.0625  C 0.9791666666666667 83.10416666666667  0 80.75  0 78  L 0 10  C 0 7.250000000000001  0.9791666666666667 4.895833333333326  2.9375 2.9374999999999956  C 4.895833333333334 0.9791666666666554  7.250000000000001 0  10 0  L 102 0  C 104.75000000000001 0  107.10416666666669 0.9791666666666554  109.0625 2.9374999999999956  Z " stroke-width="0" stroke-dasharray="0" stroke="rgba(255, 255, 255, 0)" fill="none" transform="matrix(1 0 0 1 685 1365 )" class="stroke" mask="url(#Clip30)" />
  </g>
</svg>