<?xml version="1.0" encoding="utf-8"?>
<svg version="1.1" xmlns:xlink="http://www.w3.org/1999/xlink" width="41px" height="45px" xmlns="http://www.w3.org/2000/svg">
  <defs>
    <pattern id="BGPattern" patternUnits="userSpaceOnUse" alignment="0 0" imageRepeat="None" />
    <mask fill="white" id="Clip35">
      <path d="M 20.5 42.99107142857143  C 20.762820512820518 42.99107142857143  20.894230769230774 42.85714285714286  20.894230769230766 42.589285714285715  C 20.894230769230774 42.32142857142857  20.762820512820518 42.1875  20.5 42.1875  C 19.53084935897436 42.1875  18.6972155448718 41.831752232142854  17.999098557692307 41.12025669642857  C 17.30098157051282 40.408761160714285  16.951923076923077 39.559151785714285  16.951923076923077 38.57142857142858  C 16.951923076923077 38.30357142857143  16.82051282051282 38.169642857142854  16.557692307692307 38.169642857142854  C 16.294871794871796 38.169642857142854  16.163461538461537 38.30357142857143  16.163461538461537 38.57142857142858  C 16.163461538461537 39.793526785714285  16.58643830128205 40.83565848214286  17.432391826923077 41.697823660714285  C 18.278345352564106 42.559988839285715  19.300881410256412 42.99107142857143  20.5 42.99107142857143  Z M 38.7578125 33.14732142857142  C 39.43129006410257 33.917410714285715  40.1786858974359 34.654017857142854  41 35.357142857142854  C 41.00000000000001 36.22767857142857  40.68790064102564 36.98102678571429  40.06370192307693 37.6171875  C 39.43950320512821 38.25334821428571  38.70032051282052 38.57142857142858  37.84615384615385 38  L 26.807692307692307 38  C 26.807692307692307 40.345982142857146  26.191706730769234 41.861049107142854  24.959735576923077 43.116629464285715  C 23.727764423076923 44.37220982142857  22.2411858974359 45  20.5 45  C 18.758814102564106 45  17.272235576923077 44.37220982142857  16.040264423076923 43.116629464285715  C 14.80829326923077 41.861049107142854  14.192307692307692 40.345982142857146  14.192307692307692 38  L 3.153846153846154 38  C 2.2996794871794877 38.57142857142858  1.560496794871795 38.25334821428571  0.9362980769230769 37.6171875  C 0.3120993589743591 36.98102678571429  0 36.22767857142857  0 35.357142857142854  C 0.8213141025641028 34.654017857142854  1.5687099358974363 33.917410714285715  2.2421875 33.14732142857142  C 2.9156650641025648 32.37723214285714  3.6137820512820515 31.376953125  4.336538461538462 30.146484375  C 5.059294871794872 28.916015625  5.6711738782051295 27.58928571428571  6.172175480769231 26.166294642857142  C 6.673177083333334 24.74330357142857  7.083834134615385 23.018973214285715  7.404146634615385 20.99330357142857  C 7.724459134615385 18.967633928571427  7.884615384615385 16.791294642857135  7.884615384615385 14.464285714285714  C 7.884615384615385 11.919642857142854  8.845552884615385 9.554966517857144  10.767427884615383 7.370256696428569  C 12.689302884615383 5.185546875  15.21073717948718 3.8588169642857113  18.33173076923077 3.3900669642857126  C 18.200320512820515 3.071986607142853  18.134615384615383 2.7455357142857144  18.134615384615383 2.4107142857142874  C 18.134615384615383 1.7410714285714275  18.364583333333336 1.1718749999999982  18.82451923076923 0.703125  C 19.28445512820513 0.23437500000000167  19.84294871794872 0  20.5 0  C 21.157051282051285 0  21.715544871794876 0.23437500000000167  22.175480769230766 0.703125  C 22.635416666666668 1.1718749999999982  22.865384615384617 1.7410714285714275  22.865384615384617 2.4107142857142874  C 22.865384615384617 2.7455357142857144  22.79967948717949 3.071986607142853  22.668269230769234 3.3900669642857126  C 25.789262820512825 3.8588169642857113  28.310697115384617 5.185546875  30.232572115384617 7.370256696428569  C 32.15444711538461 9.554966517857144  33.11538461538461 11.919642857142854  33.11538461538461 14.464285714285714  C 33.11538461538461 16.791294642857135  33.27554086538461 18.967633928571427  33.59585336538461 20.99330357142857  C 33.91616586538461 23.018973214285715  34.32682291666667 24.74330357142857  34.82782451923077 26.166294642857142  C 35.328826121794876 27.58928571428571  35.94070512820513 28.916015625  36.66346153846154 30.146484375  C 37.386217948717956 31.376953125  38.084334935897445 32.37723214285714  38.7578125 33.14732142857142  Z " fill-rule="evenodd" />
    </mask>
  </defs>
  <g transform="matrix(1 0 0 1 -959 -1788 )">
    <path d="M 20.5 42.99107142857143  C 20.762820512820518 42.99107142857143  20.894230769230774 42.85714285714286  20.894230769230766 42.589285714285715  C 20.894230769230774 42.32142857142857  20.762820512820518 42.1875  20.5 42.1875  C 19.53084935897436 42.1875  18.6972155448718 41.831752232142854  17.999098557692307 41.12025669642857  C 17.30098157051282 40.408761160714285  16.951923076923077 39.559151785714285  16.951923076923077 38.57142857142858  C 16.951923076923077 38.30357142857143  16.82051282051282 38.169642857142854  16.557692307692307 38.169642857142854  C 16.294871794871796 38.169642857142854  16.163461538461537 38.30357142857143  16.163461538461537 38.57142857142858  C 16.163461538461537 39.793526785714285  16.58643830128205 40.83565848214286  17.432391826923077 41.697823660714285  C 18.278345352564106 42.559988839285715  19.300881410256412 42.99107142857143  20.5 42.99107142857143  Z M 38.7578125 33.14732142857142  C 39.43129006410257 33.917410714285715  40.1786858974359 34.654017857142854  41 35.357142857142854  C 41.00000000000001 36.22767857142857  40.68790064102564 36.98102678571429  40.06370192307693 37.6171875  C 39.43950320512821 38.25334821428571  38.70032051282052 38.57142857142858  37.84615384615385 38  L 26.807692307692307 38  C 26.807692307692307 40.345982142857146  26.191706730769234 41.861049107142854  24.959735576923077 43.116629464285715  C 23.727764423076923 44.37220982142857  22.2411858974359 45  20.5 45  C 18.758814102564106 45  17.272235576923077 44.37220982142857  16.040264423076923 43.116629464285715  C 14.80829326923077 41.861049107142854  14.192307692307692 40.345982142857146  14.192307692307692 38  L 3.153846153846154 38  C 2.2996794871794877 38.57142857142858  1.560496794871795 38.25334821428571  0.9362980769230769 37.6171875  C 0.3120993589743591 36.98102678571429  0 36.22767857142857  0 35.357142857142854  C 0.8213141025641028 34.654017857142854  1.5687099358974363 33.917410714285715  2.2421875 33.14732142857142  C 2.9156650641025648 32.37723214285714  3.6137820512820515 31.376953125  4.336538461538462 30.146484375  C 5.059294871794872 28.916015625  5.6711738782051295 27.58928571428571  6.172175480769231 26.166294642857142  C 6.673177083333334 24.74330357142857  7.083834134615385 23.018973214285715  7.404146634615385 20.99330357142857  C 7.724459134615385 18.967633928571427  7.884615384615385 16.791294642857135  7.884615384615385 14.464285714285714  C 7.884615384615385 11.919642857142854  8.845552884615385 9.554966517857144  10.767427884615383 7.370256696428569  C 12.689302884615383 5.185546875  15.21073717948718 3.8588169642857113  18.33173076923077 3.3900669642857126  C 18.200320512820515 3.071986607142853  18.134615384615383 2.7455357142857144  18.134615384615383 2.4107142857142874  C 18.134615384615383 1.7410714285714275  18.364583333333336 1.1718749999999982  18.82451923076923 0.703125  C 19.28445512820513 0.23437500000000167  19.84294871794872 0  20.5 0  C 21.157051282051285 0  21.715544871794876 0.23437500000000167  22.175480769230766 0.703125  C 22.635416666666668 1.1718749999999982  22.865384615384617 1.7410714285714275  22.865384615384617 2.4107142857142874  C 22.865384615384617 2.7455357142857144  22.79967948717949 3.071986607142853  22.668269230769234 3.3900669642857126  C 25.789262820512825 3.8588169642857113  28.310697115384617 5.185546875  30.232572115384617 7.370256696428569  C 32.15444711538461 9.554966517857144  33.11538461538461 11.919642857142854  33.11538461538461 14.464285714285714  C 33.11538461538461 16.791294642857135  33.27554086538461 18.967633928571427  33.59585336538461 20.99330357142857  C 33.91616586538461 23.018973214285715  34.32682291666667 24.74330357142857  34.82782451923077 26.166294642857142  C 35.328826121794876 27.58928571428571  35.94070512820513 28.916015625  36.66346153846154 30.146484375  C 37.386217948717956 31.376953125  38.084334935897445 32.37723214285714  38.7578125 33.14732142857142  Z " fill-rule="nonzero" fill="rgba(0, 0, 0, 1)" stroke="none" transform="matrix(1 0 0 1 959 1788 )" class="fill" />
    <path d="M 20.5 42.99107142857143  C 20.762820512820518 42.99107142857143  20.894230769230774 42.85714285714286  20.894230769230766 42.589285714285715  C 20.894230769230774 42.32142857142857  20.762820512820518 42.1875  20.5 42.1875  C 19.53084935897436 42.1875  18.6972155448718 41.831752232142854  17.999098557692307 41.12025669642857  C 17.30098157051282 40.408761160714285  16.951923076923077 39.559151785714285  16.951923076923077 38.57142857142858  C 16.951923076923077 38.30357142857143  16.82051282051282 38.169642857142854  16.557692307692307 38.169642857142854  C 16.294871794871796 38.169642857142854  16.163461538461537 38.30357142857143  16.163461538461537 38.57142857142858  C 16.163461538461537 39.793526785714285  16.58643830128205 40.83565848214286  17.432391826923077 41.697823660714285  C 18.278345352564106 42.559988839285715  19.300881410256412 42.99107142857143  20.5 42.99107142857143  Z " stroke-width="0" stroke-dasharray="0" stroke="rgba(255, 255, 255, 0)" fill="none" transform="matrix(1 0 0 1 959 1788 )" class="stroke" mask="url(#Clip35)" />
    <path d="M 38.7578125 33.14732142857142  C 39.43129006410257 33.917410714285715  40.1786858974359 34.654017857142854  41 35.357142857142854  C 41.00000000000001 36.22767857142857  40.68790064102564 36.98102678571429  40.06370192307693 37.6171875  C 39.43950320512821 38.25334821428571  38.70032051282052 38.57142857142858  37.84615384615385 38  L 26.807692307692307 38  C 26.807692307692307 40.345982142857146  26.191706730769234 41.861049107142854  24.959735576923077 43.116629464285715  C 23.727764423076923 44.37220982142857  22.2411858974359 45  20.5 45  C 18.758814102564106 45  17.272235576923077 44.37220982142857  16.040264423076923 43.116629464285715  C 14.80829326923077 41.861049107142854  14.192307692307692 40.345982142857146  14.192307692307692 38  L 3.153846153846154 38  C 2.2996794871794877 38.57142857142858  1.560496794871795 38.25334821428571  0.9362980769230769 37.6171875  C 0.3120993589743591 36.98102678571429  0 36.22767857142857  0 35.357142857142854  C 0.8213141025641028 34.654017857142854  1.5687099358974363 33.917410714285715  2.2421875 33.14732142857142  C 2.9156650641025648 32.37723214285714  3.6137820512820515 31.376953125  4.336538461538462 30.146484375  C 5.059294871794872 28.916015625  5.6711738782051295 27.58928571428571  6.172175480769231 26.166294642857142  C 6.673177083333334 24.74330357142857  7.083834134615385 23.018973214285715  7.404146634615385 20.99330357142857  C 7.724459134615385 18.967633928571427  7.884615384615385 16.791294642857135  7.884615384615385 14.464285714285714  C 7.884615384615385 11.919642857142854  8.845552884615385 9.554966517857144  10.767427884615383 7.370256696428569  C 12.689302884615383 5.185546875  15.21073717948718 3.8588169642857113  18.33173076923077 3.3900669642857126  C 18.200320512820515 3.071986607142853  18.134615384615383 2.7455357142857144  18.134615384615383 2.4107142857142874  C 18.134615384615383 1.7410714285714275  18.364583333333336 1.1718749999999982  18.82451923076923 0.703125  C 19.28445512820513 0.23437500000000167  19.84294871794872 0  20.5 0  C 21.157051282051285 0  21.715544871794876 0.23437500000000167  22.175480769230766 0.703125  C 22.635416666666668 1.1718749999999982  22.865384615384617 1.7410714285714275  22.865384615384617 2.4107142857142874  C 22.865384615384617 2.7455357142857144  22.79967948717949 3.071986607142853  22.668269230769234 3.3900669642857126  C 25.789262820512825 3.8588169642857113  28.310697115384617 5.185546875  30.232572115384617 7.370256696428569  C 32.15444711538461 9.554966517857144  33.11538461538461 11.919642857142854  33.11538461538461 14.464285714285714  C 33.11538461538461 16.791294642857135  33.27554086538461 18.967633928571427  33.59585336538461 20.99330357142857  C 33.91616586538461 23.018973214285715  34.32682291666667 24.74330357142857  34.82782451923077 26.166294642857142  C 35.328826121794876 27.58928571428571  35.94070512820513 28.916015625  36.66346153846154 30.146484375  C 37.386217948717956 31.376953125  38.084334935897445 32.37723214285714  38.7578125 33.14732142857142  Z " stroke-width="0" stroke-dasharray="0" stroke="rgba(255, 255, 255, 0)" fill="none" transform="matrix(1 0 0 1 959 1788 )" class="stroke" mask="url(#Clip35)" />
  </g>
</svg>