<?xml version="1.0" encoding="utf-8"?>
<svg version="1.1" xmlns:xlink="http://www.w3.org/1999/xlink" width="112px" height="112px" xmlns="http://www.w3.org/2000/svg">
  <defs>
    <pattern id="BGPattern" patternUnits="userSpaceOnUse" alignment="0 0" imageRepeat="None" />
    <mask fill="white" id="Clip32">
      <path d="M 109.60600808781051 90.90699017908723  C 111.20200269593684 92.5892547660312  112 94.55189678413248  112 96.79491623339109  C 112 99.08107067205853  111.20200269593684 101.02214519545542  109.60600808781051 102.61813980358174  L 102.68284228769498 109.60600808781051  C 101.00057770075101 111.20200269593684  99.03793568264973 112  96.79491623339109 112  C 94.50876179472367 112  92.56768727132679 111.20200269593684  90.97169266320046 109.60600808781051  L 67.4846909300982 86.05430387059504  C 65.84556133256307 84.50144425187753  65.02599653379549 82.56036972848065  65.02599653379549 80.23108030040439  C 65.02599653379549 77.94492586173695  65.95339880608512 75.87444637011362  67.80820335066436 74.01964182553438  L 51.244367417677644 57.45580589254766  L 43.091854419410744 65.60831889081456  C 42.48796456768727 66.21220874253802  41.75466974773734 66.51415366839977  40.891969959560946 66.51415366839977  C 40.02927017138457 66.51415366839977  39.29597535143463 66.21220874253802  38.69208549971115 65.60831889081456  C 38.778355478528795 65.69458886963218  39.04794916233391 65.9533988060851  39.50086655112652 66.3847487001733  C 39.95378393991912 66.8160985942615  40.22337762372425 67.09647602541884  40.30964760254189 67.22588099364529  C 40.39591758135952 67.35528596187176  40.61159252840362 67.60331215097247  40.95667244367418 67.96995956094743  C 41.30175235894474 68.33660697092239  41.51742730598884 68.62776814943193  41.60369728480647 68.84344309647604  C 41.68996726362411 69.05911804352012  41.81937223185057 69.35027922202964  41.991912189485845 69.71692663200463  C 42.164452147121125 70.08357404197957  42.28307336799538 70.43943770460234  42.34777585210861 70.7845176198729  C 42.41247833622184 71.12959753514346  42.44482957827845 71.51781243982282  42.44482957827845 71.94916233391103  C 42.44482957827845 73.58829193144616  41.840939726554986 75.05488157134604  40.63316002310803 76.34893125361063  C 40.503755054881566 76.47833622183708  40.147891392258806 76.86655112651647  39.56556903523975 77.51357596764876  C 38.98324667822068 78.16060080878106  38.5734642788369 78.60273445022145  38.33622183708839 78.83997689196995  C 38.09897939533988 79.07721933371846  37.6999807433083 79.43308299634123  37.13922588099364 79.90756787983824  C 36.578471018679 80.38205276333527  36.10398613518198 80.7163489312536  35.7157712305026 80.9104563835933  C 35.327556325823224 81.10456383593298  34.85307144232621 81.29867128827267  34.29231658001156 81.49277874061235  C 33.731561717696906 81.68688619295206  33.17080685538225 81.78393991912189  32.610051993067586 81.78393991912189  C 30.884652416714815 81.78393991912189  29.41806277681495 81.18005006739843  28.210283073367997 79.97227036395147  L 1.8116695551704218 53.573656845753895  C 0.6038898517234741 52.36587714230695  0 50.89928750240709  0 49.173887926054306  C 0 48.613133063739646  0.09705372616984402 48.05237820142499  0.2911611785095321 47.49162333911034  C 0.4852686308492201 46.93086847679568  0.6793760831889082 46.456383593298675  0.8734835355285961 46.0681686886193  C 1.067590987868284 45.679953783939915  1.4018871557866361 45.205468900442895  1.876372039283651 44.64471403812824  C 2.350856922780667 44.0839591758136  2.7067205854034286 43.684960523781996  2.943963027151935 43.44771808203351  C 3.181205468900443 43.210475640285  3.6233391103408437 42.80069324090121  4.270363951473136 42.21837088388215  C 4.917388792605431 41.63604852686308  5.305603697284806 41.280184864240326  5.4350086655112655 41.150779896013866  C 6.729058347775853 39.943000192566906  8.195647987675718 39.33911034084344  9.834777585210862 39.33911034084344  C 10.266127479299058 39.33911034084344  10.654342383978435 39.371461582900054  10.99942229924899 39.43616406701328  C 11.344502214519547 39.50086655112652  11.700365877142307 39.61948777200077  12.067013287117273 39.79202772963605  C 12.433660697092241 39.96456768727131  12.724821875601773 40.09397265549778  12.94049682264587 40.18024263431542  C 13.156171769689967 40.26651261313305  13.4473329481995 40.48218756017715  13.813980358174465 40.82726747544772  C 14.180627768149433 41.17234739071827  14.428653957250143 41.388022337762365  14.558058925476605 41.47429231658001  C 14.687463893703063 41.560562295397645  14.967841324860391 41.83015597920277  15.399191218948584 42.28307336799538  C 15.830541113036784 42.735990756787984  16.0893510494897 43.0055844405931  16.175621028307337 43.091854419410744  C 15.571731176583866 42.487964567687264  15.269786250722126 41.75466974773733  15.269786250722126 40.89196995956094  C 15.269786250722126 40.02927017138455  15.571731176583866 39.29597535143462  16.175621028307337 38.692085499711155  L 38.69208549971115 16.175621028307333  C 39.29597535143463 15.571731176583853  40.02927017138457 15.269786250722126  40.891969959560946 15.269786250722126  C 41.75466974773734 15.269786250722126  42.48796456768727 15.571731176583853  43.091854419410744 16.175621028307333  C 43.00558444059311 16.089351049489686  42.735990756787984 15.830541113036777  42.28307336799538 15.399191218948587  C 41.83015597920277 14.967841324860386  41.56056229539765 14.687463893703066  41.47429231658001 14.558058925476605  C 41.38802233776237 14.428653957250143  41.17234739071827 14.180627768149417  40.82726747544772 13.813980358174465  C 40.48218756017717 13.4473329481995  40.26651261313307 13.156171769689958  40.18024263431543 12.940496822645864  C 40.09397265549779 12.724821875601757  39.964567687271334 12.433660697092227  39.79202772963605 12.067013287117275  C 39.61948777200077 11.700365877142298  39.50086655112652 11.344502214519544  39.43616406701329 10.999422299248987  C 39.371461582900054 10.654342383978419  39.33911034084345 10.266127479299046  39.33911034084345 9.834777585210857  C 39.33911034084345 8.195647987675708  39.94300019256692 6.729058347775849  41.150779896013866 5.435008665511269  C 41.28018486424032 5.305603697284807  41.636048526863085 4.9173887926054345  42.218370883882145 4.270363951473138  C 42.80069324090121 3.623339110340842  43.210475640285 3.18120546890043  43.44771808203351 2.9439630271519395  C 43.68496052378202 2.706720585403424  44.0839591758136 2.3508569227806575  44.64471403812825 1.8763720392836518  C 45.20546890044291 1.4018871557866213  45.67995378393992 1.0675909878682877  46.068168688619295 0.8734835355286013  C 46.456383593298675 0.6793760831889024  46.930868476795695 0.485268630849216  47.49162333911034 0.2911611785095296  C 48.052378201425 0.0970537261698432  48.61313306373965 0  49.1738879260543 0  C 50.89928750240709 0  52.36587714230696 0.6038898517234674  53.5736568457539 1.8116695551704272  L 79.97227036395147 28.21028307336799  C 81.18005006739843 29.418062776814935  81.78393991912189 30.884652416714808  81.78393991912189 32.610051993067586  C 81.78393991912189 33.17080685538224  81.68688619295206 33.73156171769689  81.49277874061237 34.29231658001156  C 81.29867128827269 34.8530714423262  81.10456383593298 35.327556325823224  80.9104563835933 35.7157712305026  C 80.7163489312536 36.10398613518197  80.38205276333527 36.57847101867899  79.90756787983824 37.13922588099365  C 79.43308299634124 37.69998074330829  79.07721933371847 38.098979395339875  78.83997689196995 38.33622183708839  C 78.60273445022146 38.573464278836894  78.16060080878106 38.98324667822068  77.51357596764876 39.56556903523975  C 76.86655112651647 40.14789139225881  76.47833622183708 40.503755054881566  76.34893125361063 40.63316002310803  C 75.05488157134604 41.840939726554964  73.5882919314462 42.444829578278444  71.94916233391103 42.444829578278444  C 71.51781243982285 42.444829578278444  71.12959753514346 42.41247833622184  70.78451761987291 42.347775852108605  C 70.43943770460235 42.28307336799538  70.0835740419796 42.16445214712111  69.71692663200463 41.991912189485845  C 69.35027922202967 41.81937223185056  69.05911804352013 41.68996726362411  68.84344309647602 41.60369728480647  C 68.62776814943194 41.51742730598882  68.33660697092239 41.301752358944725  67.96995956094743 40.95667244367418  C 67.60331215097247 40.61159252840361  67.35528596187176 40.39591758135951  67.22588099364529 40.30964760254189  C 67.09647602541884 40.22337762372424  66.81609859426152 39.95378393991912  66.3847487001733 39.50086655112652  C 65.95339880608512 39.04794916233391  65.69458886963221 38.77835547852879  65.60831889081456 38.692085499711155  C 66.21220874253804 39.29597535143462  66.51415366839977 40.02927017138455  66.51415366839977 40.89196995956094  C 66.51415366839977 41.75466974773733  66.21220874253804 42.487964567687264  65.60831889081456 43.091854419410744  L 57.45580589254766 51.244367417677644  L 74.01964182553438 67.80820335066437  C 75.87444637011362 65.9533988060851  77.94492586173696 65.02599653379549  80.23108030040439 65.02599653379549  C 82.47409974966301 65.02599653379549  84.43674176776429 65.82399383785867  86.11900635470826 67.41998844598498  L 109.60600808781051 90.90699017908723  Z " fill-rule="evenodd" />
    </mask>
  </defs>
  <g transform="matrix(1 0 0 1 -539 -1087 )">
    <path d="M 109.60600808781051 90.90699017908723  C 111.20200269593684 92.5892547660312  112 94.55189678413248  112 96.79491623339109  C 112 99.08107067205853  111.20200269593684 101.02214519545542  109.60600808781051 102.61813980358174  L 102.68284228769498 109.60600808781051  C 101.00057770075101 111.20200269593684  99.03793568264973 112  96.79491623339109 112  C 94.50876179472367 112  92.56768727132679 111.20200269593684  90.97169266320046 109.60600808781051  L 67.4846909300982 86.05430387059504  C 65.84556133256307 84.50144425187753  65.02599653379549 82.56036972848065  65.02599653379549 80.23108030040439  C 65.02599653379549 77.94492586173695  65.95339880608512 75.87444637011362  67.80820335066436 74.01964182553438  L 51.244367417677644 57.45580589254766  L 43.091854419410744 65.60831889081456  C 42.48796456768727 66.21220874253802  41.75466974773734 66.51415366839977  40.891969959560946 66.51415366839977  C 40.02927017138457 66.51415366839977  39.29597535143463 66.21220874253802  38.69208549971115 65.60831889081456  C 38.778355478528795 65.69458886963218  39.04794916233391 65.9533988060851  39.50086655112652 66.3847487001733  C 39.95378393991912 66.8160985942615  40.22337762372425 67.09647602541884  40.30964760254189 67.22588099364529  C 40.39591758135952 67.35528596187176  40.61159252840362 67.60331215097247  40.95667244367418 67.96995956094743  C 41.30175235894474 68.33660697092239  41.51742730598884 68.62776814943193  41.60369728480647 68.84344309647604  C 41.68996726362411 69.05911804352012  41.81937223185057 69.35027922202964  41.991912189485845 69.71692663200463  C 42.164452147121125 70.08357404197957  42.28307336799538 70.43943770460234  42.34777585210861 70.7845176198729  C 42.41247833622184 71.12959753514346  42.44482957827845 71.51781243982282  42.44482957827845 71.94916233391103  C 42.44482957827845 73.58829193144616  41.840939726554986 75.05488157134604  40.63316002310803 76.34893125361063  C 40.503755054881566 76.47833622183708  40.147891392258806 76.86655112651647  39.56556903523975 77.51357596764876  C 38.98324667822068 78.16060080878106  38.5734642788369 78.60273445022145  38.33622183708839 78.83997689196995  C 38.09897939533988 79.07721933371846  37.6999807433083 79.43308299634123  37.13922588099364 79.90756787983824  C 36.578471018679 80.38205276333527  36.10398613518198 80.7163489312536  35.7157712305026 80.9104563835933  C 35.327556325823224 81.10456383593298  34.85307144232621 81.29867128827267  34.29231658001156 81.49277874061235  C 33.731561717696906 81.68688619295206  33.17080685538225 81.78393991912189  32.610051993067586 81.78393991912189  C 30.884652416714815 81.78393991912189  29.41806277681495 81.18005006739843  28.210283073367997 79.97227036395147  L 1.8116695551704218 53.573656845753895  C 0.6038898517234741 52.36587714230695  0 50.89928750240709  0 49.173887926054306  C 0 48.613133063739646  0.09705372616984402 48.05237820142499  0.2911611785095321 47.49162333911034  C 0.4852686308492201 46.93086847679568  0.6793760831889082 46.456383593298675  0.8734835355285961 46.0681686886193  C 1.067590987868284 45.679953783939915  1.4018871557866361 45.205468900442895  1.876372039283651 44.64471403812824  C 2.350856922780667 44.0839591758136  2.7067205854034286 43.684960523781996  2.943963027151935 43.44771808203351  C 3.181205468900443 43.210475640285  3.6233391103408437 42.80069324090121  4.270363951473136 42.21837088388215  C 4.917388792605431 41.63604852686308  5.305603697284806 41.280184864240326  5.4350086655112655 41.150779896013866  C 6.729058347775853 39.943000192566906  8.195647987675718 39.33911034084344  9.834777585210862 39.33911034084344  C 10.266127479299058 39.33911034084344  10.654342383978435 39.371461582900054  10.99942229924899 39.43616406701328  C 11.344502214519547 39.50086655112652  11.700365877142307 39.61948777200077  12.067013287117273 39.79202772963605  C 12.433660697092241 39.96456768727131  12.724821875601773 40.09397265549778  12.94049682264587 40.18024263431542  C 13.156171769689967 40.26651261313305  13.4473329481995 40.48218756017715  13.813980358174465 40.82726747544772  C 14.180627768149433 41.17234739071827  14.428653957250143 41.388022337762365  14.558058925476605 41.47429231658001  C 14.687463893703063 41.560562295397645  14.967841324860391 41.83015597920277  15.399191218948584 42.28307336799538  C 15.830541113036784 42.735990756787984  16.0893510494897 43.0055844405931  16.175621028307337 43.091854419410744  C 15.571731176583866 42.487964567687264  15.269786250722126 41.75466974773733  15.269786250722126 40.89196995956094  C 15.269786250722126 40.02927017138455  15.571731176583866 39.29597535143462  16.175621028307337 38.692085499711155  L 38.69208549971115 16.175621028307333  C 39.29597535143463 15.571731176583853  40.02927017138457 15.269786250722126  40.891969959560946 15.269786250722126  C 41.75466974773734 15.269786250722126  42.48796456768727 15.571731176583853  43.091854419410744 16.175621028307333  C 43.00558444059311 16.089351049489686  42.735990756787984 15.830541113036777  42.28307336799538 15.399191218948587  C 41.83015597920277 14.967841324860386  41.56056229539765 14.687463893703066  41.47429231658001 14.558058925476605  C 41.38802233776237 14.428653957250143  41.17234739071827 14.180627768149417  40.82726747544772 13.813980358174465  C 40.48218756017717 13.4473329481995  40.26651261313307 13.156171769689958  40.18024263431543 12.940496822645864  C 40.09397265549779 12.724821875601757  39.964567687271334 12.433660697092227  39.79202772963605 12.067013287117275  C 39.61948777200077 11.700365877142298  39.50086655112652 11.344502214519544  39.43616406701329 10.999422299248987  C 39.371461582900054 10.654342383978419  39.33911034084345 10.266127479299046  39.33911034084345 9.834777585210857  C 39.33911034084345 8.195647987675708  39.94300019256692 6.729058347775849  41.150779896013866 5.435008665511269  C 41.28018486424032 5.305603697284807  41.636048526863085 4.9173887926054345  42.218370883882145 4.270363951473138  C 42.80069324090121 3.623339110340842  43.210475640285 3.18120546890043  43.44771808203351 2.9439630271519395  C 43.68496052378202 2.706720585403424  44.0839591758136 2.3508569227806575  44.64471403812825 1.8763720392836518  C 45.20546890044291 1.4018871557866213  45.67995378393992 1.0675909878682877  46.068168688619295 0.8734835355286013  C 46.456383593298675 0.6793760831889024  46.930868476795695 0.485268630849216  47.49162333911034 0.2911611785095296  C 48.052378201425 0.0970537261698432  48.61313306373965 0  49.1738879260543 0  C 50.89928750240709 0  52.36587714230696 0.6038898517234674  53.5736568457539 1.8116695551704272  L 79.97227036395147 28.21028307336799  C 81.18005006739843 29.418062776814935  81.78393991912189 30.884652416714808  81.78393991912189 32.610051993067586  C 81.78393991912189 33.17080685538224  81.68688619295206 33.73156171769689  81.49277874061237 34.29231658001156  C 81.29867128827269 34.8530714423262  81.10456383593298 35.327556325823224  80.9104563835933 35.7157712305026  C 80.7163489312536 36.10398613518197  80.38205276333527 36.57847101867899  79.90756787983824 37.13922588099365  C 79.43308299634124 37.69998074330829  79.07721933371847 38.098979395339875  78.83997689196995 38.33622183708839  C 78.60273445022146 38.573464278836894  78.16060080878106 38.98324667822068  77.51357596764876 39.56556903523975  C 76.86655112651647 40.14789139225881  76.47833622183708 40.503755054881566  76.34893125361063 40.63316002310803  C 75.05488157134604 41.840939726554964  73.5882919314462 42.444829578278444  71.94916233391103 42.444829578278444  C 71.51781243982285 42.444829578278444  71.12959753514346 42.41247833622184  70.78451761987291 42.347775852108605  C 70.43943770460235 42.28307336799538  70.0835740419796 42.16445214712111  69.71692663200463 41.991912189485845  C 69.35027922202967 41.81937223185056  69.05911804352013 41.68996726362411  68.84344309647602 41.60369728480647  C 68.62776814943194 41.51742730598882  68.33660697092239 41.301752358944725  67.96995956094743 40.95667244367418  C 67.60331215097247 40.61159252840361  67.35528596187176 40.39591758135951  67.22588099364529 40.30964760254189  C 67.09647602541884 40.22337762372424  66.81609859426152 39.95378393991912  66.3847487001733 39.50086655112652  C 65.95339880608512 39.04794916233391  65.69458886963221 38.77835547852879  65.60831889081456 38.692085499711155  C 66.21220874253804 39.29597535143462  66.51415366839977 40.02927017138455  66.51415366839977 40.89196995956094  C 66.51415366839977 41.75466974773733  66.21220874253804 42.487964567687264  65.60831889081456 43.091854419410744  L 57.45580589254766 51.244367417677644  L 74.01964182553438 67.80820335066437  C 75.87444637011362 65.9533988060851  77.94492586173696 65.02599653379549  80.23108030040439 65.02599653379549  C 82.47409974966301 65.02599653379549  84.43674176776429 65.82399383785867  86.11900635470826 67.41998844598498  L 109.60600808781051 90.90699017908723  Z " fill-rule="nonzero" fill="rgba(0, 0, 0, 1)" stroke="none" transform="matrix(1 0 0 1 539 1087 )" class="fill" />
    <path d="M 109.60600808781051 90.90699017908723  C 111.20200269593684 92.5892547660312  112 94.55189678413248  112 96.79491623339109  C 112 99.08107067205853  111.20200269593684 101.02214519545542  109.60600808781051 102.61813980358174  L 102.68284228769498 109.60600808781051  C 101.00057770075101 111.20200269593684  99.03793568264973 112  96.79491623339109 112  C 94.50876179472367 112  92.56768727132679 111.20200269593684  90.97169266320046 109.60600808781051  L 67.4846909300982 86.05430387059504  C 65.84556133256307 84.50144425187753  65.02599653379549 82.56036972848065  65.02599653379549 80.23108030040439  C 65.02599653379549 77.94492586173695  65.95339880608512 75.87444637011362  67.80820335066436 74.01964182553438  L 51.244367417677644 57.45580589254766  L 43.091854419410744 65.60831889081456  C 42.48796456768727 66.21220874253802  41.75466974773734 66.51415366839977  40.891969959560946 66.51415366839977  C 40.02927017138457 66.51415366839977  39.29597535143463 66.21220874253802  38.69208549971115 65.60831889081456  C 38.778355478528795 65.69458886963218  39.04794916233391 65.9533988060851  39.50086655112652 66.3847487001733  C 39.95378393991912 66.8160985942615  40.22337762372425 67.09647602541884  40.30964760254189 67.22588099364529  C 40.39591758135952 67.35528596187176  40.61159252840362 67.60331215097247  40.95667244367418 67.96995956094743  C 41.30175235894474 68.33660697092239  41.51742730598884 68.62776814943193  41.60369728480647 68.84344309647604  C 41.68996726362411 69.05911804352012  41.81937223185057 69.35027922202964  41.991912189485845 69.71692663200463  C 42.164452147121125 70.08357404197957  42.28307336799538 70.43943770460234  42.34777585210861 70.7845176198729  C 42.41247833622184 71.12959753514346  42.44482957827845 71.51781243982282  42.44482957827845 71.94916233391103  C 42.44482957827845 73.58829193144616  41.840939726554986 75.05488157134604  40.63316002310803 76.34893125361063  C 40.503755054881566 76.47833622183708  40.147891392258806 76.86655112651647  39.56556903523975 77.51357596764876  C 38.98324667822068 78.16060080878106  38.5734642788369 78.60273445022145  38.33622183708839 78.83997689196995  C 38.09897939533988 79.07721933371846  37.6999807433083 79.43308299634123  37.13922588099364 79.90756787983824  C 36.578471018679 80.38205276333527  36.10398613518198 80.7163489312536  35.7157712305026 80.9104563835933  C 35.327556325823224 81.10456383593298  34.85307144232621 81.29867128827267  34.29231658001156 81.49277874061235  C 33.731561717696906 81.68688619295206  33.17080685538225 81.78393991912189  32.610051993067586 81.78393991912189  C 30.884652416714815 81.78393991912189  29.41806277681495 81.18005006739843  28.210283073367997 79.97227036395147  L 1.8116695551704218 53.573656845753895  C 0.6038898517234741 52.36587714230695  0 50.89928750240709  0 49.173887926054306  C 0 48.613133063739646  0.09705372616984402 48.05237820142499  0.2911611785095321 47.49162333911034  C 0.4852686308492201 46.93086847679568  0.6793760831889082 46.456383593298675  0.8734835355285961 46.0681686886193  C 1.067590987868284 45.679953783939915  1.4018871557866361 45.205468900442895  1.876372039283651 44.64471403812824  C 2.350856922780667 44.0839591758136  2.7067205854034286 43.684960523781996  2.943963027151935 43.44771808203351  C 3.181205468900443 43.210475640285  3.6233391103408437 42.80069324090121  4.270363951473136 42.21837088388215  C 4.917388792605431 41.63604852686308  5.305603697284806 41.280184864240326  5.4350086655112655 41.150779896013866  C 6.729058347775853 39.943000192566906  8.195647987675718 39.33911034084344  9.834777585210862 39.33911034084344  C 10.266127479299058 39.33911034084344  10.654342383978435 39.371461582900054  10.99942229924899 39.43616406701328  C 11.344502214519547 39.50086655112652  11.700365877142307 39.61948777200077  12.067013287117273 39.79202772963605  C 12.433660697092241 39.96456768727131  12.724821875601773 40.09397265549778  12.94049682264587 40.18024263431542  C 13.156171769689967 40.26651261313305  13.4473329481995 40.48218756017715  13.813980358174465 40.82726747544772  C 14.180627768149433 41.17234739071827  14.428653957250143 41.388022337762365  14.558058925476605 41.47429231658001  C 14.687463893703063 41.560562295397645  14.967841324860391 41.83015597920277  15.399191218948584 42.28307336799538  C 15.830541113036784 42.735990756787984  16.0893510494897 43.0055844405931  16.175621028307337 43.091854419410744  C 15.571731176583866 42.487964567687264  15.269786250722126 41.75466974773733  15.269786250722126 40.89196995956094  C 15.269786250722126 40.02927017138455  15.571731176583866 39.29597535143462  16.175621028307337 38.692085499711155  L 38.69208549971115 16.175621028307333  C 39.29597535143463 15.571731176583853  40.02927017138457 15.269786250722126  40.891969959560946 15.269786250722126  C 41.75466974773734 15.269786250722126  42.48796456768727 15.571731176583853  43.091854419410744 16.175621028307333  C 43.00558444059311 16.089351049489686  42.735990756787984 15.830541113036777  42.28307336799538 15.399191218948587  C 41.83015597920277 14.967841324860386  41.56056229539765 14.687463893703066  41.47429231658001 14.558058925476605  C 41.38802233776237 14.428653957250143  41.17234739071827 14.180627768149417  40.82726747544772 13.813980358174465  C 40.48218756017717 13.4473329481995  40.26651261313307 13.156171769689958  40.18024263431543 12.940496822645864  C 40.09397265549779 12.724821875601757  39.964567687271334 12.433660697092227  39.79202772963605 12.067013287117275  C 39.61948777200077 11.700365877142298  39.50086655112652 11.344502214519544  39.43616406701329 10.999422299248987  C 39.371461582900054 10.654342383978419  39.33911034084345 10.266127479299046  39.33911034084345 9.834777585210857  C 39.33911034084345 8.195647987675708  39.94300019256692 6.729058347775849  41.150779896013866 5.435008665511269  C 41.28018486424032 5.305603697284807  41.636048526863085 4.9173887926054345  42.218370883882145 4.270363951473138  C 42.80069324090121 3.623339110340842  43.210475640285 3.18120546890043  43.44771808203351 2.9439630271519395  C 43.68496052378202 2.706720585403424  44.0839591758136 2.3508569227806575  44.64471403812825 1.8763720392836518  C 45.20546890044291 1.4018871557866213  45.67995378393992 1.0675909878682877  46.068168688619295 0.8734835355286013  C 46.456383593298675 0.6793760831889024  46.930868476795695 0.485268630849216  47.49162333911034 0.2911611785095296  C 48.052378201425 0.0970537261698432  48.61313306373965 0  49.1738879260543 0  C 50.89928750240709 0  52.36587714230696 0.6038898517234674  53.5736568457539 1.8116695551704272  L 79.97227036395147 28.21028307336799  C 81.18005006739843 29.418062776814935  81.78393991912189 30.884652416714808  81.78393991912189 32.610051993067586  C 81.78393991912189 33.17080685538224  81.68688619295206 33.73156171769689  81.49277874061237 34.29231658001156  C 81.29867128827269 34.8530714423262  81.10456383593298 35.327556325823224  80.9104563835933 35.7157712305026  C 80.7163489312536 36.10398613518197  80.38205276333527 36.57847101867899  79.90756787983824 37.13922588099365  C 79.43308299634124 37.69998074330829  79.07721933371847 38.098979395339875  78.83997689196995 38.33622183708839  C 78.60273445022146 38.573464278836894  78.16060080878106 38.98324667822068  77.51357596764876 39.56556903523975  C 76.86655112651647 40.14789139225881  76.47833622183708 40.503755054881566  76.34893125361063 40.63316002310803  C 75.05488157134604 41.840939726554964  73.5882919314462 42.444829578278444  71.94916233391103 42.444829578278444  C 71.51781243982285 42.444829578278444  71.12959753514346 42.41247833622184  70.78451761987291 42.347775852108605  C 70.43943770460235 42.28307336799538  70.0835740419796 42.16445214712111  69.71692663200463 41.991912189485845  C 69.35027922202967 41.81937223185056  69.05911804352013 41.68996726362411  68.84344309647602 41.60369728480647  C 68.62776814943194 41.51742730598882  68.33660697092239 41.301752358944725  67.96995956094743 40.95667244367418  C 67.60331215097247 40.61159252840361  67.35528596187176 40.39591758135951  67.22588099364529 40.30964760254189  C 67.09647602541884 40.22337762372424  66.81609859426152 39.95378393991912  66.3847487001733 39.50086655112652  C 65.95339880608512 39.04794916233391  65.69458886963221 38.77835547852879  65.60831889081456 38.692085499711155  C 66.21220874253804 39.29597535143462  66.51415366839977 40.02927017138455  66.51415366839977 40.89196995956094  C 66.51415366839977 41.75466974773733  66.21220874253804 42.487964567687264  65.60831889081456 43.091854419410744  L 57.45580589254766 51.244367417677644  L 74.01964182553438 67.80820335066437  C 75.87444637011362 65.9533988060851  77.94492586173696 65.02599653379549  80.23108030040439 65.02599653379549  C 82.47409974966301 65.02599653379549  84.43674176776429 65.82399383785867  86.11900635470826 67.41998844598498  L 109.60600808781051 90.90699017908723  Z " stroke-width="0" stroke-dasharray="0" stroke="rgba(255, 255, 255, 0)" fill="none" transform="matrix(1 0 0 1 539 1087 )" class="stroke" mask="url(#Clip32)" />
  </g>
</svg>