<?xml version="1.0" encoding="utf-8"?>
<svg version="1.1" xmlns:xlink="http://www.w3.org/1999/xlink" width="89px" height="89px" xmlns="http://www.w3.org/2000/svg">
  <defs>
    <pattern id="BGPattern" patternUnits="userSpaceOnUse" alignment="0 0" imageRepeat="None" />
    <mask fill="white" id="Clip40">
      <path d="M 62.18080357142857 78.29715401785714  C 67.64397321428572 75.40001860119048  72.1303943452381 71.46819196428571  75.64006696428572 66.50167410714286  C 74.9116443452381 61.369605654761905  73.46307663690477 57.10667782738095  71.29436383928572 53.712890625  C 69.12565104166667 50.31910342261905  66.07124255952381 48.35732886904761  62.131138392857146 47.82756696428571  C 59.91276041666667 50.27771577380951  57.27222842261905 52.18982514880951  54.209542410714285 53.56389508928571  C 51.14685639880953 54.937965029761905  47.910342261904766 55.625  44.5 55.625  C 41.08965773809524 55.625  37.85314360119048 54.937965029761905  34.790457589285715 53.56389508928571  C 31.727771577380956 52.18982514880951  29.087239583333336 50.27771577380951  26.868861607142858 47.82756696428571  C 22.92875744047619 48.35732886904761  19.874348958333336 50.31910342261905  17.705636160714285 53.712890625  C 15.53692336309524 57.10667782738095  14.088355654761905 61.369605654761905  13.359933035714286 66.50167410714286  C 16.869605654761905 71.46819196428571  21.356026785714285 75.40001860119048  26.819196428571427 78.29715401785714  C 32.28236607142857 81.19428943452381  38.175967261904766 82.64285714285714  44.5 82.64285714285714  C 50.82403273809524 82.64285714285714  56.71763392857143 81.19428943452381  62.18080357142857 78.29715401785714  Z M 57.984095982142854 45.269810267857146  C 61.708984375 41.544921875  63.57142857142857 37.050223214285715  63.57142857142857 31.78571428571428  C 63.57142857142857 26.521205357142854  61.708984375 22.026506696428573  57.984095982142854 18.301618303571427  C 54.259207589285715 14.576729910714281  49.76450892857143 12.714285714285719  44.5 12.714285714285719  C 39.23549107142857 12.714285714285719  34.740792410714285 14.576729910714281  31.015904017857142 18.301618303571427  C 27.291015625 22.026506696428573  25.428571428571427 26.521205357142854  25.428571428571427 31.78571428571428  C 25.428571428571427 37.050223214285715  27.291015625 41.544921875  31.015904017857142 45.269810267857146  C 34.740792410714285 48.99469866071429  39.23549107142857 50.857142857142854  44.5 50.857142857142854  C 49.76450892857143 50.857142857142854  54.259207589285715 48.99469866071429  57.984095982142854 45.269810267857146  Z M 85.47377232142857 27.216517857142854  C 87.82459077380953 32.71279761904761  89 38.47395833333333  89 44.5  C 89 50.52604166666666  87.82459077380953 56.27892485119047  85.47377232142857 61.75864955357143  C 83.12295386904763 67.23837425595238  79.96921502976193 71.9731212797619  76.01255580357143 75.962890625  C 72.05589657738096 79.95265997023809  67.32942708333334 83.12295386904762  61.83314732142857 85.47377232142857  C 56.33686755952382 87.82459077380952  50.559151785714285 89  44.5 89  C 38.473958333333336 89  32.71279761904762 87.82459077380952  27.216517857142858 85.47377232142857  C 21.7202380952381 83.12295386904762  16.98549107142857 79.9609375  13.012276785714286 75.98772321428571  C 9.0390625 72.01450892857143  5.877046130952381 67.2797619047619  3.5262276785714284 61.783482142857146  C 1.175409226190476 56.28720238095238  0 50.52604166666666  0 44.5  C 0 38.47395833333333  1.175409226190476 32.71279761904761  3.5262276785714284 27.216517857142854  C 5.877046130952381 21.720238095238088  9.0390625 16.985491071428573  13.012276785714286 13.012276785714281  C 16.98549107142857 9.0390625  21.7202380952381 5.877046130952379  27.216517857142858 3.526227678571427  C 32.71279761904762 1.1754092261904758  38.473958333333336 0  44.5 0  C 50.52604166666667 0  56.28720238095239 1.1754092261904758  61.783482142857146 3.526227678571427  C 67.27976190476191 5.877046130952379  72.01450892857143 9.0390625  75.98772321428572 13.012276785714281  C 79.96093750000001 16.985491071428573  83.12295386904763 21.720238095238088  85.47377232142857 27.216517857142854  Z " fill-rule="evenodd" />
    </mask>
  </defs>
  <g transform="matrix(1 0 0 1 -562 -1891 )">
    <path d="M 62.18080357142857 78.29715401785714  C 67.64397321428572 75.40001860119048  72.1303943452381 71.46819196428571  75.64006696428572 66.50167410714286  C 74.9116443452381 61.369605654761905  73.46307663690477 57.10667782738095  71.29436383928572 53.712890625  C 69.12565104166667 50.31910342261905  66.07124255952381 48.35732886904761  62.131138392857146 47.82756696428571  C 59.91276041666667 50.27771577380951  57.27222842261905 52.18982514880951  54.209542410714285 53.56389508928571  C 51.14685639880953 54.937965029761905  47.910342261904766 55.625  44.5 55.625  C 41.08965773809524 55.625  37.85314360119048 54.937965029761905  34.790457589285715 53.56389508928571  C 31.727771577380956 52.18982514880951  29.087239583333336 50.27771577380951  26.868861607142858 47.82756696428571  C 22.92875744047619 48.35732886904761  19.874348958333336 50.31910342261905  17.705636160714285 53.712890625  C 15.53692336309524 57.10667782738095  14.088355654761905 61.369605654761905  13.359933035714286 66.50167410714286  C 16.869605654761905 71.46819196428571  21.356026785714285 75.40001860119048  26.819196428571427 78.29715401785714  C 32.28236607142857 81.19428943452381  38.175967261904766 82.64285714285714  44.5 82.64285714285714  C 50.82403273809524 82.64285714285714  56.71763392857143 81.19428943452381  62.18080357142857 78.29715401785714  Z M 57.984095982142854 45.269810267857146  C 61.708984375 41.544921875  63.57142857142857 37.050223214285715  63.57142857142857 31.78571428571428  C 63.57142857142857 26.521205357142854  61.708984375 22.026506696428573  57.984095982142854 18.301618303571427  C 54.259207589285715 14.576729910714281  49.76450892857143 12.714285714285719  44.5 12.714285714285719  C 39.23549107142857 12.714285714285719  34.740792410714285 14.576729910714281  31.015904017857142 18.301618303571427  C 27.291015625 22.026506696428573  25.428571428571427 26.521205357142854  25.428571428571427 31.78571428571428  C 25.428571428571427 37.050223214285715  27.291015625 41.544921875  31.015904017857142 45.269810267857146  C 34.740792410714285 48.99469866071429  39.23549107142857 50.857142857142854  44.5 50.857142857142854  C 49.76450892857143 50.857142857142854  54.259207589285715 48.99469866071429  57.984095982142854 45.269810267857146  Z M 85.47377232142857 27.216517857142854  C 87.82459077380953 32.71279761904761  89 38.47395833333333  89 44.5  C 89 50.52604166666666  87.82459077380953 56.27892485119047  85.47377232142857 61.75864955357143  C 83.12295386904763 67.23837425595238  79.96921502976193 71.9731212797619  76.01255580357143 75.962890625  C 72.05589657738096 79.95265997023809  67.32942708333334 83.12295386904762  61.83314732142857 85.47377232142857  C 56.33686755952382 87.82459077380952  50.559151785714285 89  44.5 89  C 38.473958333333336 89  32.71279761904762 87.82459077380952  27.216517857142858 85.47377232142857  C 21.7202380952381 83.12295386904762  16.98549107142857 79.9609375  13.012276785714286 75.98772321428571  C 9.0390625 72.01450892857143  5.877046130952381 67.2797619047619  3.5262276785714284 61.783482142857146  C 1.175409226190476 56.28720238095238  0 50.52604166666666  0 44.5  C 0 38.47395833333333  1.175409226190476 32.71279761904761  3.5262276785714284 27.216517857142854  C 5.877046130952381 21.720238095238088  9.0390625 16.985491071428573  13.012276785714286 13.012276785714281  C 16.98549107142857 9.0390625  21.7202380952381 5.877046130952379  27.216517857142858 3.526227678571427  C 32.71279761904762 1.1754092261904758  38.473958333333336 0  44.5 0  C 50.52604166666667 0  56.28720238095239 1.1754092261904758  61.783482142857146 3.526227678571427  C 67.27976190476191 5.877046130952379  72.01450892857143 9.0390625  75.98772321428572 13.012276785714281  C 79.96093750000001 16.985491071428573  83.12295386904763 21.720238095238088  85.47377232142857 27.216517857142854  Z " fill-rule="nonzero" fill="rgba(0, 0, 0, 1)" stroke="none" transform="matrix(1 0 0 1 562 1891 )" class="fill" />
    <path d="M 62.18080357142857 78.29715401785714  C 67.64397321428572 75.40001860119048  72.1303943452381 71.46819196428571  75.64006696428572 66.50167410714286  C 74.9116443452381 61.369605654761905  73.46307663690477 57.10667782738095  71.29436383928572 53.712890625  C 69.12565104166667 50.31910342261905  66.07124255952381 48.35732886904761  62.131138392857146 47.82756696428571  C 59.91276041666667 50.27771577380951  57.27222842261905 52.18982514880951  54.209542410714285 53.56389508928571  C 51.14685639880953 54.937965029761905  47.910342261904766 55.625  44.5 55.625  C 41.08965773809524 55.625  37.85314360119048 54.937965029761905  34.790457589285715 53.56389508928571  C 31.727771577380956 52.18982514880951  29.087239583333336 50.27771577380951  26.868861607142858 47.82756696428571  C 22.92875744047619 48.35732886904761  19.874348958333336 50.31910342261905  17.705636160714285 53.712890625  C 15.53692336309524 57.10667782738095  14.088355654761905 61.369605654761905  13.359933035714286 66.50167410714286  C 16.869605654761905 71.46819196428571  21.356026785714285 75.40001860119048  26.819196428571427 78.29715401785714  C 32.28236607142857 81.19428943452381  38.175967261904766 82.64285714285714  44.5 82.64285714285714  C 50.82403273809524 82.64285714285714  56.71763392857143 81.19428943452381  62.18080357142857 78.29715401785714  Z " stroke-width="0" stroke-dasharray="0" stroke="rgba(255, 255, 255, 0)" fill="none" transform="matrix(1 0 0 1 562 1891 )" class="stroke" mask="url(#Clip40)" />
    <path d="M 57.984095982142854 45.269810267857146  C 61.708984375 41.544921875  63.57142857142857 37.050223214285715  63.57142857142857 31.78571428571428  C 63.57142857142857 26.521205357142854  61.708984375 22.026506696428573  57.984095982142854 18.301618303571427  C 54.259207589285715 14.576729910714281  49.76450892857143 12.714285714285719  44.5 12.714285714285719  C 39.23549107142857 12.714285714285719  34.740792410714285 14.576729910714281  31.015904017857142 18.301618303571427  C 27.291015625 22.026506696428573  25.428571428571427 26.521205357142854  25.428571428571427 31.78571428571428  C 25.428571428571427 37.050223214285715  27.291015625 41.544921875  31.015904017857142 45.269810267857146  C 34.740792410714285 48.99469866071429  39.23549107142857 50.857142857142854  44.5 50.857142857142854  C 49.76450892857143 50.857142857142854  54.259207589285715 48.99469866071429  57.984095982142854 45.269810267857146  Z " stroke-width="0" stroke-dasharray="0" stroke="rgba(255, 255, 255, 0)" fill="none" transform="matrix(1 0 0 1 562 1891 )" class="stroke" mask="url(#Clip40)" />
    <path d="M 85.47377232142857 27.216517857142854  C 87.82459077380953 32.71279761904761  89 38.47395833333333  89 44.5  C 89 50.52604166666666  87.82459077380953 56.27892485119047  85.47377232142857 61.75864955357143  C 83.12295386904763 67.23837425595238  79.96921502976193 71.9731212797619  76.01255580357143 75.962890625  C 72.05589657738096 79.95265997023809  67.32942708333334 83.12295386904762  61.83314732142857 85.47377232142857  C 56.33686755952382 87.82459077380952  50.559151785714285 89  44.5 89  C 38.473958333333336 89  32.71279761904762 87.82459077380952  27.216517857142858 85.47377232142857  C 21.7202380952381 83.12295386904762  16.98549107142857 79.9609375  13.012276785714286 75.98772321428571  C 9.0390625 72.01450892857143  5.877046130952381 67.2797619047619  3.5262276785714284 61.783482142857146  C 1.175409226190476 56.28720238095238  0 50.52604166666666  0 44.5  C 0 38.47395833333333  1.175409226190476 32.71279761904761  3.5262276785714284 27.216517857142854  C 5.877046130952381 21.720238095238088  9.0390625 16.985491071428573  13.012276785714286 13.012276785714281  C 16.98549107142857 9.0390625  21.7202380952381 5.877046130952379  27.216517857142858 3.526227678571427  C 32.71279761904762 1.1754092261904758  38.473958333333336 0  44.5 0  C 50.52604166666667 0  56.28720238095239 1.1754092261904758  61.783482142857146 3.526227678571427  C 67.27976190476191 5.877046130952379  72.01450892857143 9.0390625  75.98772321428572 13.012276785714281  C 79.96093750000001 16.985491071428573  83.12295386904763 21.720238095238088  85.47377232142857 27.216517857142854  Z " stroke-width="0" stroke-dasharray="0" stroke="rgba(255, 255, 255, 0)" fill="none" transform="matrix(1 0 0 1 562 1891 )" class="stroke" mask="url(#Clip40)" />
  </g>
</svg>