<?xml version="1.0" encoding="utf-8"?>
<svg version="1.1" xmlns:xlink="http://www.w3.org/1999/xlink" width="112px" height="102px" xmlns="http://www.w3.org/2000/svg">
  <defs>
    <pattern id="BGPattern" patternUnits="userSpaceOnUse" alignment="0 0" imageRepeat="None" />
    <mask fill="white" id="Clip31">
      <path d="M 47.891666666666666 61.45485519591141  C 50.80833333333334 58.558773424190804  52.266666666666666 55.0641680863146  52.266666666666666 50.9710391822828  C 52.266666666666666 46.87791027825099  50.80833333333334 43.383304940374785  47.891666666666666 40.48722316865417  C 44.975 37.59114139693356  41.455555555555556 36.14310051107326  37.33333333333333 36.14310051107326  C 33.21111111111111 36.14310051107326  29.69166666666667 37.59114139693356  26.775000000000002 40.48722316865417  C 23.858333333333334 43.383304940374785  22.400000000000002 46.87791027825099  22.400000000000002 50.9710391822828  C 22.400000000000002 55.0641680863146  23.858333333333334 58.558773424190804  26.775000000000002 61.45485519591141  C 29.69166666666667 64.35093696763202  33.21111111111111 65.79897785349235  37.33333333333333 65.79897785349235  C 41.455555555555556 65.79897785349235  44.975 64.35093696763202  47.891666666666666 61.45485519591141  Z M 94.87916666666666 85.86882453151618  C 96.33749999999999 84.42078364565587  97.06666666666666 82.67348097671777  97.06666666666666 80.62691652470187  C 97.06666666666666 78.61896649630891  96.32777777777778 76.88131743327655  94.85000000000001 75.41396933560478  C 93.37222222222223 73.94662123793299  91.62222222222223 73.21294718909711  89.60000000000001 73.21294718909711  C 87.57777777777778 73.21294718909711  85.82777777777778 73.94662123793299  84.35000000000001 75.41396933560478  C 82.87222222222223 76.88131743327655  82.13333333333333 78.61896649630891  82.13333333333333 80.62691652470187  C 82.13333333333333 82.67348097671777  82.8625 84.42078364565587  84.32083333333333 85.86882453151618  C 85.77916666666667 87.31686541737649  87.53888888888889 88.04088586030664  89.60000000000001 88.04088586030664  C 91.66111111111111 88.04088586030664  93.42083333333333 87.31686541737649  94.87916666666666 85.86882453151618  Z M 94.87916666666666 26.557069846678026  C 96.33749999999999 25.10902896081772  97.06666666666666 23.361726291879613  97.06666666666666 21.31516183986372  C 97.06666666666666 19.30721181147075  96.32777777777778 17.569562748438383  94.85000000000001 16.102214650766612  C 93.37222222222223 14.63486655309483  91.62222222222223 13.901192504258944  89.60000000000001 13.901192504258944  C 87.57777777777778 13.901192504258944  85.82777777777778 14.63486655309483  84.35000000000001 16.102214650766612  C 82.87222222222223 17.569562748438383  82.13333333333333 19.30721181147075  82.13333333333333 21.31516183986372  C 82.13333333333333 23.361726291879613  82.8625 25.10902896081772  84.32083333333333 26.557069846678026  C 85.77916666666667 28.005110732538334  87.53888888888889 28.729131175468485  89.60000000000001 28.729131175468485  C 91.66111111111111 28.729131175468485  93.42083333333333 28.005110732538334  94.87916666666666 26.557069846678026  Z M 74.25833333333333 44.570698466780236  C 74.53055555555555 44.898921067575245  74.66666666666666 45.27541169789892  74 45.700170357751276  L 74 56.41567291311755  C 74.66666666666666 56.80181714934696  74.53055555555555 57.17830777967063  74.25833333333333 57.54514480408858  C 73.98611111111113 57.911981828506526  73.675 58.114707552526966  73.325 58.15332197614991  L 64.28333333333333 59.54344122657581  C 63.85555555555557 60.89494605337876  63.233333333333334 62.36229415105053  62.416666666666664 63.945485519591145  C 63.738888888888894 65.79897785349235  65.4888888888889 68.01930721181147  67.66666666666666 70.60647359454855  C 67.9388888888889 71.0312322544009  68.075 71.41737649063032  68.075 71.7649063032368  C 68.075 72.22827938671209  67.9388888888889 72.59511641113005  67.66666666666666 72.86541737649063  C 66.77222222222223 74.02385008517888  65.16805555555557 75.7518455423055  62.854166666666664 78.04940374787053  C 60.54027777777779 80.34696195343555  59.013888888888886 81.49574105621807  58.27499999999999 81.49574105621807  C 57.84722222222223 81.49574105621807  57.43888888888889 81.36059057353776  57.050000000000004 81.09028960817717  L 50.34166666666667 75.87734241908007  C 48.90277777777778 76.61101646791596  47.40555555555556 77.20954003407155  45.85 77.67291311754686  C 45.42222222222223 81.84327086882453  44.975 84.8358886996025  44.50833333333333 86.65076660988075  C 44.236111111111114 87.57751277683134  43.65277777777778 88.04088586030664  42.75833333333333 88  L 31.908333333333335 88  C 31.480555555555558 88.04088586030664  31.091666666666665 87.8960817717206  30.741666666666667 87.60647359454856  C 30.391666666666666 87.31686541737649  30.197222222222223 86.97898921067576  30.158333333333335 86.59284497444634  L 28.816666666666663 77.73083475298127  C 27.494444444444447 77.34469051675184  26.03611111111111 76.74616695059626  24.441666666666666 75.93526405451448  L 17.558333333333334 81.09028960817717  C 17.28611111111111 81.36059057353776  16.897222222222226 81.49574105621807  16.391666666666666 81.49574105621807  C 15.963888888888892 81.49574105621807  15.555555555555557 81.3412833617263  15.166666666666666 81.03236797274276  C 9.566666666666666 75.89664963089153  6.766666666666667 72.80749574105621  6.766666666666667 71.7649063032368  C 6.766666666666667 71.41737649063032  6.902777777777779 71.05053946621237  7.174999999999999 70.66439522998296  C 7.56388888888889 70.12379329926178  8.36111111111111 69.10051107325383  9.566666666666666 67.59454855195911  C 10.772222222222222 66.08858603066439  11.686111111111114 64.91084611016467  12.308333333333334 64.06132879045997  C 11.41388888888889 62.36229415105053  10.733333333333334 60.77910278250993  10.266666666666666 59.311754684838164  L 1.4000000000000001 57.921635434412266  C 1.0111111111111113 57.883021010789314  0.6805555555555557 57.699602498580354  0.4083333333333333 57.37137989778535  C 0.1361111111111111 57.043157296990344  0 56.66666666666667  0 56.241908006814306  L 0 45.52640545144804  C 0 45.14026121521862  0.1361111111111111 44.76377058489494  0.4083333333333333 44.396933560476995  C 0.6805555555555557 44.03009653605906  0.9916666666666667 43.82737081203861  1.3416666666666668 43.78875638841567  L 10.383333333333333 42.39863713798978  C 10.811111111111112 41.04713231118682  11.433333333333334 39.57978421351505  12.25 37.996592844974444  C 10.927777777777777 36.14310051107326  9.177777777777777 33.92277115275411  7 31.33560477001704  C 6.727777777777778 30.910846110164666  6.591666666666667 30.524701873935264  6.591666666666667 30.17717206132879  C 6.591666666666667 29.713798977853493  6.727777777777778 29.32765474162407  7 29.018739352640544  C 7.855555555555557 27.8603066439523  9.450000000000001 26.141964792731393  11.783333333333333 23.863713798977848  C 14.116666666666667 21.585462805224296  15.652777777777782 20.446337308347534  16.391666666666666 20.446337308347534  C 16.819444444444446 20.446337308347534  17.227777777777778 20.581487791027822  17.616666666666667 20.85178875638842  L 24.325 26.064735945485516  C 25.647222222222226 25.369676320272568  27.144444444444446 24.75184554230551  28.816666666666663 24.211243611584322  C 29.244444444444447 20.04088586030665  29.691666666666663 17.067575241340133  30.158333333333335 15.29131175468484  C 30.430555555555564 14.364565587734242  31.013888888888893 13.901192504258944  31.908333333333335 14  L 42.75833333333333 14  C 43.18611111111112 13.901192504258944  43.574999999999996 14.045996592844979  43.925000000000004 14.335604770017042  C 44.275 14.625212947189091  44.46944444444445 14.963089153889829  44.50833333333333 15.34923339011925  L 45.85 24.211243611584322  C 47.17222222222223 24.597387847813735  48.63055555555556 25.195911413969334  50.225 26.006814310051105  L 57.108333333333334 20.85178875638842  C 57.41944444444445 20.581487791027822  57.808333333333344 20.446337308347534  58.27499999999999 20.446337308347534  C 58.702777777777776 20.446337308347534  59.111111111111114 20.600795002839284  59.5 20.909710391822834  C 65.10000000000001 26.045428733674044  67.89999999999999 29.13458262350937  67.89999999999999 30.17717206132879  C 67.89999999999999 30.486087450312315  67.76388888888889 30.85292447473025  67.49166666666667 31.277683134582624  C 67.02499999999999 31.895513912549674  66.20833333333334 32.9381033503691  65.04166666666666 34.40545144804089  C 63.875 35.87279954571266  63 37.031232254400905  62.416666666666664 37.880749574105614  C 63.311111111111124 39.73424190800681  63.97222222222223 41.317433276547405  64.39999999999999 42.630323679727425  L 73.26666666666667 43.96252129471891  C 73.65555555555555 44.03975014196479  73.98611111111113 44.242475865985234  74.25833333333333 44.570698466780236  Z M 103.30833333333334 74.77683134582624  C 109.10277777777779 75.35604770017036  112.00000000000003 75.95457126632594  112 76.57240204429301  L 112 84.68143100511072  C 112.00000000000003 85.2992617830778  109.10277777777779 85.89778534923339  103.30833333333334 86.47700170357751  C 102.84166666666667 87.51959114139693  102.25833333333333 88.5235661555934  101.55833333333334 89.48892674616695  C 103.54166666666666 93.85235661555934  104.53333333333333 96.5167518455423  104.53333333333333 97.48211243611584  C 104.53333333333333 97.63657013060761  104.45555555555556 97.7717206132879  104.3 97.88756388415672  C 99.55555555555556 100.62918796138557  97.14444444444445 102  97.06666666666666 102  C 96.75555555555557 102  95.86111111111113 101.09256104486087  94.38333333333333 99.27768313458262  C 92.90555555555555 97.46280522430438  91.89444444444445 96.14991482112436  91.35000000000001 95.3390119250426  C 90.57222222222222 95.41624077228848  89.9888888888889 95.45485519591142  89.60000000000001 95.45485519591142  C 89.21111111111112 95.45485519591142  88.6277777777778 95.41624077228848  87.85000000000001 95.3390119250426  C 87.30555555555556 96.14991482112436  86.29444444444445 97.46280522430438  84.81666666666666 99.27768313458262  C 83.3388888888889 101.09256104486087  82.44444444444446 102  82.13333333333333 102  C 82.05555555555556 102  79.64444444444445 100.62918796138557  74.89999999999999 97.88756388415672  C 74.74444444444445 97.7717206132879  74.66666666666666 97.63657013060761  74.66666666666666 97.48211243611584  C 74.66666666666666 96.5167518455423  75.65833333333333 93.85235661555934  77.64166666666667 89.48892674616695  C 76.94166666666666 88.5235661555934  76.35833333333333 87.51959114139693  75.89166666666667 86.47700170357751  C 70.09722222222223 85.89778534923339  67.2 85.2992617830778  67.2 84.68143100511072  L 67.2 76.57240204429301  C 67.2 75.95457126632594  70.09722222222223 75.35604770017036  75.89166666666667 74.77683134582624  C 76.39722222222223 73.65701306076092  76.98055555555557 72.65303804656445  77.64166666666667 71.7649063032368  C 75.65833333333333 67.4014764338444  74.66666666666666 64.73708120386144  74.66666666666666 63.7717206132879  C 74.66666666666666 63.617262918796136  74.74444444444445 63.48211243611585  74.89999999999999 63.366269165247026  C 75.05555555555556 63.28904031800113  75.73611111111113 62.90289608177172  76.94166666666666 62.20783645655877  C 78.14722222222223 61.51277683134583  79.29444444444445 60.85633162975581  80.38333333333333 60.23850085178876  C 81.47222222222223 59.620670073821685  82.05555555555556 59.311754684838164  82.13333333333333 59.311754684838164  C 82.44444444444446 59.311754684838164  83.3388888888889 60.209540034071544  84.81666666666666 62.00511073253833  C 86.29444444444445 63.80068143100511  87.30555555555556 65.1039182282794  87.85000000000001 65.91482112436117  C 88.6277777777778 65.83759227711528  89.21111111111112 65.79897785349235  89.60000000000001 65.79897785349235  C 89.9888888888889 65.79897785349235  90.57222222222222 65.83759227711528  91.35000000000001 65.91482112436117  C 93.33333333333334 63.1731970471323  95.12222222222225 61.01078932424758  96.71666666666667 59.427597955706986  L 97.06666666666666 59.311754684838164  C 97.22222222222224 59.311754684838164  99.63333333333335 60.66325951164111  104.3 63.366269165247026  C 104.45555555555556 63.48211243611585  104.53333333333333 63.617262918796136  104.53333333333333 63.7717206132879  C 104.53333333333333 64.73708120386144  103.54166666666666 67.4014764338444  101.55833333333334 71.7649063032368  C 102.21944444444446 72.65303804656445  102.80277777777778 73.65701306076092  103.30833333333334 74.77683134582624  Z M 103.30833333333334 15.465076660988075  C 109.10277777777779 16.044293015332197  112.00000000000003 16.642816581487786  112 17.260647359454858  L 112 25.369676320272568  C 112.00000000000003 25.98750709823963  109.10277777777779 26.586030664395228  103.30833333333334 27.16524701873935  C 102.84166666666667 28.207836456558773  102.25833333333333 29.211811470755244  101.55833333333334 30.17717206132879  C 103.54166666666666 34.54060193072118  104.53333333333333 37.204997160704146  104.53333333333333 38.17035775127768  C 104.53333333333333 38.32481544576944  104.45555555555556 38.45996592844974  104.3 38.57580919931856  C 99.55555555555556 41.317433276547405  97.14444444444445 42.688245315161836  97.06666666666666 42.688245315161836  C 96.75555555555557 42.688245315161836  95.86111111111113 41.78080636002271  94.38333333333333 39.96592844974446  C 92.90555555555555 38.151050539466205  91.89444444444445 36.8381601362862  91.35000000000001 36.027257240204435  C 90.57222222222222 36.10448608745031  89.9888888888889 36.14310051107326  89.60000000000001 36.14310051107326  C 89.21111111111112 36.14310051107326  88.6277777777778 36.10448608745031  87.85000000000001 36.027257240204435  C 87.30555555555556 36.8381601362862  86.29444444444445 38.151050539466205  84.81666666666666 39.96592844974446  C 83.3388888888889 41.78080636002271  82.44444444444446 42.688245315161836  82.13333333333333 42.688245315161836  C 82.05555555555556 42.688245315161836  79.64444444444445 41.317433276547405  74.89999999999999 38.57580919931856  C 74.74444444444445 38.45996592844974  74.66666666666666 38.32481544576944  74.66666666666666 38.17035775127768  C 74.66666666666666 37.204997160704146  75.65833333333333 34.54060193072118  77.64166666666667 30.17717206132879  C 76.94166666666666 29.211811470755244  76.35833333333333 28.207836456558773  75.89166666666667 27.16524701873935  C 70.09722222222223 26.586030664395228  67.2 25.98750709823963  67.2 25.369676320272568  L 67.2 17.260647359454858  C 67.2 16.642816581487786  70.09722222222223 16.044293015332197  75.89166666666667 15.465076660988075  C 76.39722222222223 14.345258375922768  76.98055555555557 13.341283361726283  77.64166666666667 12.453151618398635  C 75.65833333333333 8.089721749006237  74.66666666666666 5.425326519023272  74.66666666666666 4.459965928449748  C 74.66666666666666 4.305508233957974  74.74444444444445 4.170357751277686  74.89999999999999 4.054514480408862  C 75.05555555555556 3.9772856331629636  75.73611111111113 3.5911413969335633  76.94166666666666 2.8960817717206155  C 78.14722222222223 2.201022146507668  79.29444444444445 1.5445769449176465  80.38333333333333 0.926746166950597  C 81.47222222222223 0.3089153889835248  82.05555555555556 0  82.13333333333333 0  C 82.44444444444446 0  83.3388888888889 0.8977853492333852  84.81666666666666 2.693356047700167  C 86.29444444444445 4.488926746166948  87.30555555555556 5.792163543441231  87.85000000000001 6.603066439523003  C 88.6277777777778 6.525837592277105  89.21111111111112 6.487223168654179  89.60000000000001 6.487223168654179  C 89.9888888888889 6.487223168654179  90.57222222222222 6.525837592277105  91.35000000000001 6.603066439523003  C 93.33333333333334 3.861442362294139  95.12222222222225 1.6990346394094202  96.71666666666667 0.11584327086882462  L 97.06666666666666 0  C 97.22222222222224 0  99.63333333333335 1.3515048268029464  104.3 4.054514480408862  C 104.45555555555556 4.170357751277686  104.53333333333333 4.305508233957974  104.53333333333333 4.459965928449748  C 104.53333333333333 5.425326519023272  103.54166666666666 8.089721749006237  101.55833333333334 12.453151618398635  C 102.21944444444446 13.341283361726283  102.80277777777778 14.345258375922768  103.30833333333334 15.465076660988075  Z " fill-rule="evenodd" />
    </mask>
  </defs>
  <g transform="matrix(1 0 0 1 -246 -1092 )">
    <path d="M 47.891666666666666 61.45485519591141  C 50.80833333333334 58.558773424190804  52.266666666666666 55.0641680863146  52.266666666666666 50.9710391822828  C 52.266666666666666 46.87791027825099  50.80833333333334 43.383304940374785  47.891666666666666 40.48722316865417  C 44.975 37.59114139693356  41.455555555555556 36.14310051107326  37.33333333333333 36.14310051107326  C 33.21111111111111 36.14310051107326  29.69166666666667 37.59114139693356  26.775000000000002 40.48722316865417  C 23.858333333333334 43.383304940374785  22.400000000000002 46.87791027825099  22.400000000000002 50.9710391822828  C 22.400000000000002 55.0641680863146  23.858333333333334 58.558773424190804  26.775000000000002 61.45485519591141  C 29.69166666666667 64.35093696763202  33.21111111111111 65.79897785349235  37.33333333333333 65.79897785349235  C 41.455555555555556 65.79897785349235  44.975 64.35093696763202  47.891666666666666 61.45485519591141  Z M 94.87916666666666 85.86882453151618  C 96.33749999999999 84.42078364565587  97.06666666666666 82.67348097671777  97.06666666666666 80.62691652470187  C 97.06666666666666 78.61896649630891  96.32777777777778 76.88131743327655  94.85000000000001 75.41396933560478  C 93.37222222222223 73.94662123793299  91.62222222222223 73.21294718909711  89.60000000000001 73.21294718909711  C 87.57777777777778 73.21294718909711  85.82777777777778 73.94662123793299  84.35000000000001 75.41396933560478  C 82.87222222222223 76.88131743327655  82.13333333333333 78.61896649630891  82.13333333333333 80.62691652470187  C 82.13333333333333 82.67348097671777  82.8625 84.42078364565587  84.32083333333333 85.86882453151618  C 85.77916666666667 87.31686541737649  87.53888888888889 88.04088586030664  89.60000000000001 88.04088586030664  C 91.66111111111111 88.04088586030664  93.42083333333333 87.31686541737649  94.87916666666666 85.86882453151618  Z M 94.87916666666666 26.557069846678026  C 96.33749999999999 25.10902896081772  97.06666666666666 23.361726291879613  97.06666666666666 21.31516183986372  C 97.06666666666666 19.30721181147075  96.32777777777778 17.569562748438383  94.85000000000001 16.102214650766612  C 93.37222222222223 14.63486655309483  91.62222222222223 13.901192504258944  89.60000000000001 13.901192504258944  C 87.57777777777778 13.901192504258944  85.82777777777778 14.63486655309483  84.35000000000001 16.102214650766612  C 82.87222222222223 17.569562748438383  82.13333333333333 19.30721181147075  82.13333333333333 21.31516183986372  C 82.13333333333333 23.361726291879613  82.8625 25.10902896081772  84.32083333333333 26.557069846678026  C 85.77916666666667 28.005110732538334  87.53888888888889 28.729131175468485  89.60000000000001 28.729131175468485  C 91.66111111111111 28.729131175468485  93.42083333333333 28.005110732538334  94.87916666666666 26.557069846678026  Z M 74.25833333333333 44.570698466780236  C 74.53055555555555 44.898921067575245  74.66666666666666 45.27541169789892  74 45.700170357751276  L 74 56.41567291311755  C 74.66666666666666 56.80181714934696  74.53055555555555 57.17830777967063  74.25833333333333 57.54514480408858  C 73.98611111111113 57.911981828506526  73.675 58.114707552526966  73.325 58.15332197614991  L 64.28333333333333 59.54344122657581  C 63.85555555555557 60.89494605337876  63.233333333333334 62.36229415105053  62.416666666666664 63.945485519591145  C 63.738888888888894 65.79897785349235  65.4888888888889 68.01930721181147  67.66666666666666 70.60647359454855  C 67.9388888888889 71.0312322544009  68.075 71.41737649063032  68.075 71.7649063032368  C 68.075 72.22827938671209  67.9388888888889 72.59511641113005  67.66666666666666 72.86541737649063  C 66.77222222222223 74.02385008517888  65.16805555555557 75.7518455423055  62.854166666666664 78.04940374787053  C 60.54027777777779 80.34696195343555  59.013888888888886 81.49574105621807  58.27499999999999 81.49574105621807  C 57.84722222222223 81.49574105621807  57.43888888888889 81.36059057353776  57.050000000000004 81.09028960817717  L 50.34166666666667 75.87734241908007  C 48.90277777777778 76.61101646791596  47.40555555555556 77.20954003407155  45.85 77.67291311754686  C 45.42222222222223 81.84327086882453  44.975 84.8358886996025  44.50833333333333 86.65076660988075  C 44.236111111111114 87.57751277683134  43.65277777777778 88.04088586030664  42.75833333333333 88  L 31.908333333333335 88  C 31.480555555555558 88.04088586030664  31.091666666666665 87.8960817717206  30.741666666666667 87.60647359454856  C 30.391666666666666 87.31686541737649  30.197222222222223 86.97898921067576  30.158333333333335 86.59284497444634  L 28.816666666666663 77.73083475298127  C 27.494444444444447 77.34469051675184  26.03611111111111 76.74616695059626  24.441666666666666 75.93526405451448  L 17.558333333333334 81.09028960817717  C 17.28611111111111 81.36059057353776  16.897222222222226 81.49574105621807  16.391666666666666 81.49574105621807  C 15.963888888888892 81.49574105621807  15.555555555555557 81.3412833617263  15.166666666666666 81.03236797274276  C 9.566666666666666 75.89664963089153  6.766666666666667 72.80749574105621  6.766666666666667 71.7649063032368  C 6.766666666666667 71.41737649063032  6.902777777777779 71.05053946621237  7.174999999999999 70.66439522998296  C 7.56388888888889 70.12379329926178  8.36111111111111 69.10051107325383  9.566666666666666 67.59454855195911  C 10.772222222222222 66.08858603066439  11.686111111111114 64.91084611016467  12.308333333333334 64.06132879045997  C 11.41388888888889 62.36229415105053  10.733333333333334 60.77910278250993  10.266666666666666 59.311754684838164  L 1.4000000000000001 57.921635434412266  C 1.0111111111111113 57.883021010789314  0.6805555555555557 57.699602498580354  0.4083333333333333 57.37137989778535  C 0.1361111111111111 57.043157296990344  0 56.66666666666667  0 56.241908006814306  L 0 45.52640545144804  C 0 45.14026121521862  0.1361111111111111 44.76377058489494  0.4083333333333333 44.396933560476995  C 0.6805555555555557 44.03009653605906  0.9916666666666667 43.82737081203861  1.3416666666666668 43.78875638841567  L 10.383333333333333 42.39863713798978  C 10.811111111111112 41.04713231118682  11.433333333333334 39.57978421351505  12.25 37.996592844974444  C 10.927777777777777 36.14310051107326  9.177777777777777 33.92277115275411  7 31.33560477001704  C 6.727777777777778 30.910846110164666  6.591666666666667 30.524701873935264  6.591666666666667 30.17717206132879  C 6.591666666666667 29.713798977853493  6.727777777777778 29.32765474162407  7 29.018739352640544  C 7.855555555555557 27.8603066439523  9.450000000000001 26.141964792731393  11.783333333333333 23.863713798977848  C 14.116666666666667 21.585462805224296  15.652777777777782 20.446337308347534  16.391666666666666 20.446337308347534  C 16.819444444444446 20.446337308347534  17.227777777777778 20.581487791027822  17.616666666666667 20.85178875638842  L 24.325 26.064735945485516  C 25.647222222222226 25.369676320272568  27.144444444444446 24.75184554230551  28.816666666666663 24.211243611584322  C 29.244444444444447 20.04088586030665  29.691666666666663 17.067575241340133  30.158333333333335 15.29131175468484  C 30.430555555555564 14.364565587734242  31.013888888888893 13.901192504258944  31.908333333333335 14  L 42.75833333333333 14  C 43.18611111111112 13.901192504258944  43.574999999999996 14.045996592844979  43.925000000000004 14.335604770017042  C 44.275 14.625212947189091  44.46944444444445 14.963089153889829  44.50833333333333 15.34923339011925  L 45.85 24.211243611584322  C 47.17222222222223 24.597387847813735  48.63055555555556 25.195911413969334  50.225 26.006814310051105  L 57.108333333333334 20.85178875638842  C 57.41944444444445 20.581487791027822  57.808333333333344 20.446337308347534  58.27499999999999 20.446337308347534  C 58.702777777777776 20.446337308347534  59.111111111111114 20.600795002839284  59.5 20.909710391822834  C 65.10000000000001 26.045428733674044  67.89999999999999 29.13458262350937  67.89999999999999 30.17717206132879  C 67.89999999999999 30.486087450312315  67.76388888888889 30.85292447473025  67.49166666666667 31.277683134582624  C 67.02499999999999 31.895513912549674  66.20833333333334 32.9381033503691  65.04166666666666 34.40545144804089  C 63.875 35.87279954571266  63 37.031232254400905  62.416666666666664 37.880749574105614  C 63.311111111111124 39.73424190800681  63.97222222222223 41.317433276547405  64.39999999999999 42.630323679727425  L 73.26666666666667 43.96252129471891  C 73.65555555555555 44.03975014196479  73.98611111111113 44.242475865985234  74.25833333333333 44.570698466780236  Z M 103.30833333333334 74.77683134582624  C 109.10277777777779 75.35604770017036  112.00000000000003 75.95457126632594  112 76.57240204429301  L 112 84.68143100511072  C 112.00000000000003 85.2992617830778  109.10277777777779 85.89778534923339  103.30833333333334 86.47700170357751  C 102.84166666666667 87.51959114139693  102.25833333333333 88.5235661555934  101.55833333333334 89.48892674616695  C 103.54166666666666 93.85235661555934  104.53333333333333 96.5167518455423  104.53333333333333 97.48211243611584  C 104.53333333333333 97.63657013060761  104.45555555555556 97.7717206132879  104.3 97.88756388415672  C 99.55555555555556 100.62918796138557  97.14444444444445 102  97.06666666666666 102  C 96.75555555555557 102  95.86111111111113 101.09256104486087  94.38333333333333 99.27768313458262  C 92.90555555555555 97.46280522430438  91.89444444444445 96.14991482112436  91.35000000000001 95.3390119250426  C 90.57222222222222 95.41624077228848  89.9888888888889 95.45485519591142  89.60000000000001 95.45485519591142  C 89.21111111111112 95.45485519591142  88.6277777777778 95.41624077228848  87.85000000000001 95.3390119250426  C 87.30555555555556 96.14991482112436  86.29444444444445 97.46280522430438  84.81666666666666 99.27768313458262  C 83.3388888888889 101.09256104486087  82.44444444444446 102  82.13333333333333 102  C 82.05555555555556 102  79.64444444444445 100.62918796138557  74.89999999999999 97.88756388415672  C 74.74444444444445 97.7717206132879  74.66666666666666 97.63657013060761  74.66666666666666 97.48211243611584  C 74.66666666666666 96.5167518455423  75.65833333333333 93.85235661555934  77.64166666666667 89.48892674616695  C 76.94166666666666 88.5235661555934  76.35833333333333 87.51959114139693  75.89166666666667 86.47700170357751  C 70.09722222222223 85.89778534923339  67.2 85.2992617830778  67.2 84.68143100511072  L 67.2 76.57240204429301  C 67.2 75.95457126632594  70.09722222222223 75.35604770017036  75.89166666666667 74.77683134582624  C 76.39722222222223 73.65701306076092  76.98055555555557 72.65303804656445  77.64166666666667 71.7649063032368  C 75.65833333333333 67.4014764338444  74.66666666666666 64.73708120386144  74.66666666666666 63.7717206132879  C 74.66666666666666 63.617262918796136  74.74444444444445 63.48211243611585  74.89999999999999 63.366269165247026  C 75.05555555555556 63.28904031800113  75.73611111111113 62.90289608177172  76.94166666666666 62.20783645655877  C 78.14722222222223 61.51277683134583  79.29444444444445 60.85633162975581  80.38333333333333 60.23850085178876  C 81.47222222222223 59.620670073821685  82.05555555555556 59.311754684838164  82.13333333333333 59.311754684838164  C 82.44444444444446 59.311754684838164  83.3388888888889 60.209540034071544  84.81666666666666 62.00511073253833  C 86.29444444444445 63.80068143100511  87.30555555555556 65.1039182282794  87.85000000000001 65.91482112436117  C 88.6277777777778 65.83759227711528  89.21111111111112 65.79897785349235  89.60000000000001 65.79897785349235  C 89.9888888888889 65.79897785349235  90.57222222222222 65.83759227711528  91.35000000000001 65.91482112436117  C 93.33333333333334 63.1731970471323  95.12222222222225 61.01078932424758  96.71666666666667 59.427597955706986  L 97.06666666666666 59.311754684838164  C 97.22222222222224 59.311754684838164  99.63333333333335 60.66325951164111  104.3 63.366269165247026  C 104.45555555555556 63.48211243611585  104.53333333333333 63.617262918796136  104.53333333333333 63.7717206132879  C 104.53333333333333 64.73708120386144  103.54166666666666 67.4014764338444  101.55833333333334 71.7649063032368  C 102.21944444444446 72.65303804656445  102.80277777777778 73.65701306076092  103.30833333333334 74.77683134582624  Z M 103.30833333333334 15.465076660988075  C 109.10277777777779 16.044293015332197  112.00000000000003 16.642816581487786  112 17.260647359454858  L 112 25.369676320272568  C 112.00000000000003 25.98750709823963  109.10277777777779 26.586030664395228  103.30833333333334 27.16524701873935  C 102.84166666666667 28.207836456558773  102.25833333333333 29.211811470755244  101.55833333333334 30.17717206132879  C 103.54166666666666 34.54060193072118  104.53333333333333 37.204997160704146  104.53333333333333 38.17035775127768  C 104.53333333333333 38.32481544576944  104.45555555555556 38.45996592844974  104.3 38.57580919931856  C 99.55555555555556 41.317433276547405  97.14444444444445 42.688245315161836  97.06666666666666 42.688245315161836  C 96.75555555555557 42.688245315161836  95.86111111111113 41.78080636002271  94.38333333333333 39.96592844974446  C 92.90555555555555 38.151050539466205  91.89444444444445 36.8381601362862  91.35000000000001 36.027257240204435  C 90.57222222222222 36.10448608745031  89.9888888888889 36.14310051107326  89.60000000000001 36.14310051107326  C 89.21111111111112 36.14310051107326  88.6277777777778 36.10448608745031  87.85000000000001 36.027257240204435  C 87.30555555555556 36.8381601362862  86.29444444444445 38.151050539466205  84.81666666666666 39.96592844974446  C 83.3388888888889 41.78080636002271  82.44444444444446 42.688245315161836  82.13333333333333 42.688245315161836  C 82.05555555555556 42.688245315161836  79.64444444444445 41.317433276547405  74.89999999999999 38.57580919931856  C 74.74444444444445 38.45996592844974  74.66666666666666 38.32481544576944  74.66666666666666 38.17035775127768  C 74.66666666666666 37.204997160704146  75.65833333333333 34.54060193072118  77.64166666666667 30.17717206132879  C 76.94166666666666 29.211811470755244  76.35833333333333 28.207836456558773  75.89166666666667 27.16524701873935  C 70.09722222222223 26.586030664395228  67.2 25.98750709823963  67.2 25.369676320272568  L 67.2 17.260647359454858  C 67.2 16.642816581487786  70.09722222222223 16.044293015332197  75.89166666666667 15.465076660988075  C 76.39722222222223 14.345258375922768  76.98055555555557 13.341283361726283  77.64166666666667 12.453151618398635  C 75.65833333333333 8.089721749006237  74.66666666666666 5.425326519023272  74.66666666666666 4.459965928449748  C 74.66666666666666 4.305508233957974  74.74444444444445 4.170357751277686  74.89999999999999 4.054514480408862  C 75.05555555555556 3.9772856331629636  75.73611111111113 3.5911413969335633  76.94166666666666 2.8960817717206155  C 78.14722222222223 2.201022146507668  79.29444444444445 1.5445769449176465  80.38333333333333 0.926746166950597  C 81.47222222222223 0.3089153889835248  82.05555555555556 0  82.13333333333333 0  C 82.44444444444446 0  83.3388888888889 0.8977853492333852  84.81666666666666 2.693356047700167  C 86.29444444444445 4.488926746166948  87.30555555555556 5.792163543441231  87.85000000000001 6.603066439523003  C 88.6277777777778 6.525837592277105  89.21111111111112 6.487223168654179  89.60000000000001 6.487223168654179  C 89.9888888888889 6.487223168654179  90.57222222222222 6.525837592277105  91.35000000000001 6.603066439523003  C 93.33333333333334 3.861442362294139  95.12222222222225 1.6990346394094202  96.71666666666667 0.11584327086882462  L 97.06666666666666 0  C 97.22222222222224 0  99.63333333333335 1.3515048268029464  104.3 4.054514480408862  C 104.45555555555556 4.170357751277686  104.53333333333333 4.305508233957974  104.53333333333333 4.459965928449748  C 104.53333333333333 5.425326519023272  103.54166666666666 8.089721749006237  101.55833333333334 12.453151618398635  C 102.21944444444446 13.341283361726283  102.80277777777778 14.345258375922768  103.30833333333334 15.465076660988075  Z " fill-rule="nonzero" fill="rgba(0, 0, 0, 1)" stroke="none" transform="matrix(1 0 0 1 246 1092 )" class="fill" />
    <path d="M 47.891666666666666 61.45485519591141  C 50.80833333333334 58.558773424190804  52.266666666666666 55.0641680863146  52.266666666666666 50.9710391822828  C 52.266666666666666 46.87791027825099  50.80833333333334 43.383304940374785  47.891666666666666 40.48722316865417  C 44.975 37.59114139693356  41.455555555555556 36.14310051107326  37.33333333333333 36.14310051107326  C 33.21111111111111 36.14310051107326  29.69166666666667 37.59114139693356  26.775000000000002 40.48722316865417  C 23.858333333333334 43.383304940374785  22.400000000000002 46.87791027825099  22.400000000000002 50.9710391822828  C 22.400000000000002 55.0641680863146  23.858333333333334 58.558773424190804  26.775000000000002 61.45485519591141  C 29.69166666666667 64.35093696763202  33.21111111111111 65.79897785349235  37.33333333333333 65.79897785349235  C 41.455555555555556 65.79897785349235  44.975 64.35093696763202  47.891666666666666 61.45485519591141  Z " stroke-width="0" stroke-dasharray="0" stroke="rgba(255, 255, 255, 0)" fill="none" transform="matrix(1 0 0 1 246 1092 )" class="stroke" mask="url(#Clip31)" />
    <path d="M 94.87916666666666 85.86882453151618  C 96.33749999999999 84.42078364565587  97.06666666666666 82.67348097671777  97.06666666666666 80.62691652470187  C 97.06666666666666 78.61896649630891  96.32777777777778 76.88131743327655  94.85000000000001 75.41396933560478  C 93.37222222222223 73.94662123793299  91.62222222222223 73.21294718909711  89.60000000000001 73.21294718909711  C 87.57777777777778 73.21294718909711  85.82777777777778 73.94662123793299  84.35000000000001 75.41396933560478  C 82.87222222222223 76.88131743327655  82.13333333333333 78.61896649630891  82.13333333333333 80.62691652470187  C 82.13333333333333 82.67348097671777  82.8625 84.42078364565587  84.32083333333333 85.86882453151618  C 85.77916666666667 87.31686541737649  87.53888888888889 88.04088586030664  89.60000000000001 88.04088586030664  C 91.66111111111111 88.04088586030664  93.42083333333333 87.31686541737649  94.87916666666666 85.86882453151618  Z " stroke-width="0" stroke-dasharray="0" stroke="rgba(255, 255, 255, 0)" fill="none" transform="matrix(1 0 0 1 246 1092 )" class="stroke" mask="url(#Clip31)" />
    <path d="M 94.87916666666666 26.557069846678026  C 96.33749999999999 25.10902896081772  97.06666666666666 23.361726291879613  97.06666666666666 21.31516183986372  C 97.06666666666666 19.30721181147075  96.32777777777778 17.569562748438383  94.85000000000001 16.102214650766612  C 93.37222222222223 14.63486655309483  91.62222222222223 13.901192504258944  89.60000000000001 13.901192504258944  C 87.57777777777778 13.901192504258944  85.82777777777778 14.63486655309483  84.35000000000001 16.102214650766612  C 82.87222222222223 17.569562748438383  82.13333333333333 19.30721181147075  82.13333333333333 21.31516183986372  C 82.13333333333333 23.361726291879613  82.8625 25.10902896081772  84.32083333333333 26.557069846678026  C 85.77916666666667 28.005110732538334  87.53888888888889 28.729131175468485  89.60000000000001 28.729131175468485  C 91.66111111111111 28.729131175468485  93.42083333333333 28.005110732538334  94.87916666666666 26.557069846678026  Z " stroke-width="0" stroke-dasharray="0" stroke="rgba(255, 255, 255, 0)" fill="none" transform="matrix(1 0 0 1 246 1092 )" class="stroke" mask="url(#Clip31)" />
    <path d="M 74.25833333333333 44.570698466780236  C 74.53055555555555 44.898921067575245  74.66666666666666 45.27541169789892  74 45.700170357751276  L 74 56.41567291311755  C 74.66666666666666 56.80181714934696  74.53055555555555 57.17830777967063  74.25833333333333 57.54514480408858  C 73.98611111111113 57.911981828506526  73.675 58.114707552526966  73.325 58.15332197614991  L 64.28333333333333 59.54344122657581  C 63.85555555555557 60.89494605337876  63.233333333333334 62.36229415105053  62.416666666666664 63.945485519591145  C 63.738888888888894 65.79897785349235  65.4888888888889 68.01930721181147  67.66666666666666 70.60647359454855  C 67.9388888888889 71.0312322544009  68.075 71.41737649063032  68.075 71.7649063032368  C 68.075 72.22827938671209  67.9388888888889 72.59511641113005  67.66666666666666 72.86541737649063  C 66.77222222222223 74.02385008517888  65.16805555555557 75.7518455423055  62.854166666666664 78.04940374787053  C 60.54027777777779 80.34696195343555  59.013888888888886 81.49574105621807  58.27499999999999 81.49574105621807  C 57.84722222222223 81.49574105621807  57.43888888888889 81.36059057353776  57.050000000000004 81.09028960817717  L 50.34166666666667 75.87734241908007  C 48.90277777777778 76.61101646791596  47.40555555555556 77.20954003407155  45.85 77.67291311754686  C 45.42222222222223 81.84327086882453  44.975 84.8358886996025  44.50833333333333 86.65076660988075  C 44.236111111111114 87.57751277683134  43.65277777777778 88.04088586030664  42.75833333333333 88  L 31.908333333333335 88  C 31.480555555555558 88.04088586030664  31.091666666666665 87.8960817717206  30.741666666666667 87.60647359454856  C 30.391666666666666 87.31686541737649  30.197222222222223 86.97898921067576  30.158333333333335 86.59284497444634  L 28.816666666666663 77.73083475298127  C 27.494444444444447 77.34469051675184  26.03611111111111 76.74616695059626  24.441666666666666 75.93526405451448  L 17.558333333333334 81.09028960817717  C 17.28611111111111 81.36059057353776  16.897222222222226 81.49574105621807  16.391666666666666 81.49574105621807  C 15.963888888888892 81.49574105621807  15.555555555555557 81.3412833617263  15.166666666666666 81.03236797274276  C 9.566666666666666 75.89664963089153  6.766666666666667 72.80749574105621  6.766666666666667 71.7649063032368  C 6.766666666666667 71.41737649063032  6.902777777777779 71.05053946621237  7.174999999999999 70.66439522998296  C 7.56388888888889 70.12379329926178  8.36111111111111 69.10051107325383  9.566666666666666 67.59454855195911  C 10.772222222222222 66.08858603066439  11.686111111111114 64.91084611016467  12.308333333333334 64.06132879045997  C 11.41388888888889 62.36229415105053  10.733333333333334 60.77910278250993  10.266666666666666 59.311754684838164  L 1.4000000000000001 57.921635434412266  C 1.0111111111111113 57.883021010789314  0.6805555555555557 57.699602498580354  0.4083333333333333 57.37137989778535  C 0.1361111111111111 57.043157296990344  0 56.66666666666667  0 56.241908006814306  L 0 45.52640545144804  C 0 45.14026121521862  0.1361111111111111 44.76377058489494  0.4083333333333333 44.396933560476995  C 0.6805555555555557 44.03009653605906  0.9916666666666667 43.82737081203861  1.3416666666666668 43.78875638841567  L 10.383333333333333 42.39863713798978  C 10.811111111111112 41.04713231118682  11.433333333333334 39.57978421351505  12.25 37.996592844974444  C 10.927777777777777 36.14310051107326  9.177777777777777 33.92277115275411  7 31.33560477001704  C 6.727777777777778 30.910846110164666  6.591666666666667 30.524701873935264  6.591666666666667 30.17717206132879  C 6.591666666666667 29.713798977853493  6.727777777777778 29.32765474162407  7 29.018739352640544  C 7.855555555555557 27.8603066439523  9.450000000000001 26.141964792731393  11.783333333333333 23.863713798977848  C 14.116666666666667 21.585462805224296  15.652777777777782 20.446337308347534  16.391666666666666 20.446337308347534  C 16.819444444444446 20.446337308347534  17.227777777777778 20.581487791027822  17.616666666666667 20.85178875638842  L 24.325 26.064735945485516  C 25.647222222222226 25.369676320272568  27.144444444444446 24.75184554230551  28.816666666666663 24.211243611584322  C 29.244444444444447 20.04088586030665  29.691666666666663 17.067575241340133  30.158333333333335 15.29131175468484  C 30.430555555555564 14.364565587734242  31.013888888888893 13.901192504258944  31.908333333333335 14  L 42.75833333333333 14  C 43.18611111111112 13.901192504258944  43.574999999999996 14.045996592844979  43.925000000000004 14.335604770017042  C 44.275 14.625212947189091  44.46944444444445 14.963089153889829  44.50833333333333 15.34923339011925  L 45.85 24.211243611584322  C 47.17222222222223 24.597387847813735  48.63055555555556 25.195911413969334  50.225 26.006814310051105  L 57.108333333333334 20.85178875638842  C 57.41944444444445 20.581487791027822  57.808333333333344 20.446337308347534  58.27499999999999 20.446337308347534  C 58.702777777777776 20.446337308347534  59.111111111111114 20.600795002839284  59.5 20.909710391822834  C 65.10000000000001 26.045428733674044  67.89999999999999 29.13458262350937  67.89999999999999 30.17717206132879  C 67.89999999999999 30.486087450312315  67.76388888888889 30.85292447473025  67.49166666666667 31.277683134582624  C 67.02499999999999 31.895513912549674  66.20833333333334 32.9381033503691  65.04166666666666 34.40545144804089  C 63.875 35.87279954571266  63 37.031232254400905  62.416666666666664 37.880749574105614  C 63.311111111111124 39.73424190800681  63.97222222222223 41.317433276547405  64.39999999999999 42.630323679727425  L 73.26666666666667 43.96252129471891  C 73.65555555555555 44.03975014196479  73.98611111111113 44.242475865985234  74.25833333333333 44.570698466780236  Z " stroke-width="0" stroke-dasharray="0" stroke="rgba(255, 255, 255, 0)" fill="none" transform="matrix(1 0 0 1 246 1092 )" class="stroke" mask="url(#Clip31)" />
    <path d="M 103.30833333333334 74.77683134582624  C 109.10277777777779 75.35604770017036  112.00000000000003 75.95457126632594  112 76.57240204429301  L 112 84.68143100511072  C 112.00000000000003 85.2992617830778  109.10277777777779 85.89778534923339  103.30833333333334 86.47700170357751  C 102.84166666666667 87.51959114139693  102.25833333333333 88.5235661555934  101.55833333333334 89.48892674616695  C 103.54166666666666 93.85235661555934  104.53333333333333 96.5167518455423  104.53333333333333 97.48211243611584  C 104.53333333333333 97.63657013060761  104.45555555555556 97.7717206132879  104.3 97.88756388415672  C 99.55555555555556 100.62918796138557  97.14444444444445 102  97.06666666666666 102  C 96.75555555555557 102  95.86111111111113 101.09256104486087  94.38333333333333 99.27768313458262  C 92.90555555555555 97.46280522430438  91.89444444444445 96.14991482112436  91.35000000000001 95.3390119250426  C 90.57222222222222 95.41624077228848  89.9888888888889 95.45485519591142  89.60000000000001 95.45485519591142  C 89.21111111111112 95.45485519591142  88.6277777777778 95.41624077228848  87.85000000000001 95.3390119250426  C 87.30555555555556 96.14991482112436  86.29444444444445 97.46280522430438  84.81666666666666 99.27768313458262  C 83.3388888888889 101.09256104486087  82.44444444444446 102  82.13333333333333 102  C 82.05555555555556 102  79.64444444444445 100.62918796138557  74.89999999999999 97.88756388415672  C 74.74444444444445 97.7717206132879  74.66666666666666 97.63657013060761  74.66666666666666 97.48211243611584  C 74.66666666666666 96.5167518455423  75.65833333333333 93.85235661555934  77.64166666666667 89.48892674616695  C 76.94166666666666 88.5235661555934  76.35833333333333 87.51959114139693  75.89166666666667 86.47700170357751  C 70.09722222222223 85.89778534923339  67.2 85.2992617830778  67.2 84.68143100511072  L 67.2 76.57240204429301  C 67.2 75.95457126632594  70.09722222222223 75.35604770017036  75.89166666666667 74.77683134582624  C 76.39722222222223 73.65701306076092  76.98055555555557 72.65303804656445  77.64166666666667 71.7649063032368  C 75.65833333333333 67.4014764338444  74.66666666666666 64.73708120386144  74.66666666666666 63.7717206132879  C 74.66666666666666 63.617262918796136  74.74444444444445 63.48211243611585  74.89999999999999 63.366269165247026  C 75.05555555555556 63.28904031800113  75.73611111111113 62.90289608177172  76.94166666666666 62.20783645655877  C 78.14722222222223 61.51277683134583  79.29444444444445 60.85633162975581  80.38333333333333 60.23850085178876  C 81.47222222222223 59.620670073821685  82.05555555555556 59.311754684838164  82.13333333333333 59.311754684838164  C 82.44444444444446 59.311754684838164  83.3388888888889 60.209540034071544  84.81666666666666 62.00511073253833  C 86.29444444444445 63.80068143100511  87.30555555555556 65.1039182282794  87.85000000000001 65.91482112436117  C 88.6277777777778 65.83759227711528  89.21111111111112 65.79897785349235  89.60000000000001 65.79897785349235  C 89.9888888888889 65.79897785349235  90.57222222222222 65.83759227711528  91.35000000000001 65.91482112436117  C 93.33333333333334 63.1731970471323  95.12222222222225 61.01078932424758  96.71666666666667 59.427597955706986  L 97.06666666666666 59.311754684838164  C 97.22222222222224 59.311754684838164  99.63333333333335 60.66325951164111  104.3 63.366269165247026  C 104.45555555555556 63.48211243611585  104.53333333333333 63.617262918796136  104.53333333333333 63.7717206132879  C 104.53333333333333 64.73708120386144  103.54166666666666 67.4014764338444  101.55833333333334 71.7649063032368  C 102.21944444444446 72.65303804656445  102.80277777777778 73.65701306076092  103.30833333333334 74.77683134582624  Z " stroke-width="0" stroke-dasharray="0" stroke="rgba(255, 255, 255, 0)" fill="none" transform="matrix(1 0 0 1 246 1092 )" class="stroke" mask="url(#Clip31)" />
    <path d="M 103.30833333333334 15.465076660988075  C 109.10277777777779 16.044293015332197  112.00000000000003 16.642816581487786  112 17.260647359454858  L 112 25.369676320272568  C 112.00000000000003 25.98750709823963  109.10277777777779 26.586030664395228  103.30833333333334 27.16524701873935  C 102.84166666666667 28.207836456558773  102.25833333333333 29.211811470755244  101.55833333333334 30.17717206132879  C 103.54166666666666 34.54060193072118  104.53333333333333 37.204997160704146  104.53333333333333 38.17035775127768  C 104.53333333333333 38.32481544576944  104.45555555555556 38.45996592844974  104.3 38.57580919931856  C 99.55555555555556 41.317433276547405  97.14444444444445 42.688245315161836  97.06666666666666 42.688245315161836  C 96.75555555555557 42.688245315161836  95.86111111111113 41.78080636002271  94.38333333333333 39.96592844974446  C 92.90555555555555 38.151050539466205  91.89444444444445 36.8381601362862  91.35000000000001 36.027257240204435  C 90.57222222222222 36.10448608745031  89.9888888888889 36.14310051107326  89.60000000000001 36.14310051107326  C 89.21111111111112 36.14310051107326  88.6277777777778 36.10448608745031  87.85000000000001 36.027257240204435  C 87.30555555555556 36.8381601362862  86.29444444444445 38.151050539466205  84.81666666666666 39.96592844974446  C 83.3388888888889 41.78080636002271  82.44444444444446 42.688245315161836  82.13333333333333 42.688245315161836  C 82.05555555555556 42.688245315161836  79.64444444444445 41.317433276547405  74.89999999999999 38.57580919931856  C 74.74444444444445 38.45996592844974  74.66666666666666 38.32481544576944  74.66666666666666 38.17035775127768  C 74.66666666666666 37.204997160704146  75.65833333333333 34.54060193072118  77.64166666666667 30.17717206132879  C 76.94166666666666 29.211811470755244  76.35833333333333 28.207836456558773  75.89166666666667 27.16524701873935  C 70.09722222222223 26.586030664395228  67.2 25.98750709823963  67.2 25.369676320272568  L 67.2 17.260647359454858  C 67.2 16.642816581487786  70.09722222222223 16.044293015332197  75.89166666666667 15.465076660988075  C 76.39722222222223 14.345258375922768  76.98055555555557 13.341283361726283  77.64166666666667 12.453151618398635  C 75.65833333333333 8.089721749006237  74.66666666666666 5.425326519023272  74.66666666666666 4.459965928449748  C 74.66666666666666 4.305508233957974  74.74444444444445 4.170357751277686  74.89999999999999 4.054514480408862  C 75.05555555555556 3.9772856331629636  75.73611111111113 3.5911413969335633  76.94166666666666 2.8960817717206155  C 78.14722222222223 2.201022146507668  79.29444444444445 1.5445769449176465  80.38333333333333 0.926746166950597  C 81.47222222222223 0.3089153889835248  82.05555555555556 0  82.13333333333333 0  C 82.44444444444446 0  83.3388888888889 0.8977853492333852  84.81666666666666 2.693356047700167  C 86.29444444444445 4.488926746166948  87.30555555555556 5.792163543441231  87.85000000000001 6.603066439523003  C 88.6277777777778 6.525837592277105  89.21111111111112 6.487223168654179  89.60000000000001 6.487223168654179  C 89.9888888888889 6.487223168654179  90.57222222222222 6.525837592277105  91.35000000000001 6.603066439523003  C 93.33333333333334 3.861442362294139  95.12222222222225 1.6990346394094202  96.71666666666667 0.11584327086882462  L 97.06666666666666 0  C 97.22222222222224 0  99.63333333333335 1.3515048268029464  104.3 4.054514480408862  C 104.45555555555556 4.170357751277686  104.53333333333333 4.305508233957974  104.53333333333333 4.459965928449748  C 104.53333333333333 5.425326519023272  103.54166666666666 8.089721749006237  101.55833333333334 12.453151618398635  C 102.21944444444446 13.341283361726283  102.80277777777778 14.345258375922768  103.30833333333334 15.465076660988075  Z " stroke-width="0" stroke-dasharray="0" stroke="rgba(255, 255, 255, 0)" fill="none" transform="matrix(1 0 0 1 246 1092 )" class="stroke" mask="url(#Clip31)" />
  </g>
</svg>