<?xml version="1.0" encoding="utf-8"?>
<svg version="1.1" xmlns:xlink="http://www.w3.org/1999/xlink" width="29px" height="29px" xmlns="http://www.w3.org/2000/svg">
  <defs>
    <pattern id="BGPattern" patternUnits="userSpaceOnUse" alignment="0 0" imageRepeat="None" />
    <mask fill="white" id="Clip48">
      <path d="M 4.295625 23.8173828125  C 4.525208333333334 23.584526909722225  4.64 23.298177083333332  4.64 22.958333333333332  C 4.64 22.631076388888893  4.525208333333334 22.347873263888893  4.295625 22.108723958333332  C 4.066041666666667 21.869574652777775  3.7941666666666665 21.75  3.48 21.75  C 3.15375 21.75  2.8788541666666667 21.869574652777775  2.6553125 22.108723958333332  C 2.4317708333333337 22.347873263888893  2.32 22.631076388888893  2.32 22.958333333333332  C 2.32 23.298177083333332  2.4317708333333337 23.584526909722225  2.6553125 23.8173828125  C 2.8788541666666667 24.050238715277775  3.15375 24.166666666666668  3.48 24.166666666666668  C 3.7941666666666665 24.166666666666668  4.066041666666667 24.050238715277775  4.295625 23.8173828125  Z M 7.195625000000001 12.442057291666668  C 7.425208333333333 12.68120659722222  7.54 12.96440972222222  8 13.291666666666668  L 8 25.375  C 7.54 25.702256944444443  7.425208333333333 25.985460069444443  7.195625000000001 26.224609375  C 6.966041666666667 26.463758680555557  6.694166666666668 26.583333333333332  6.38 26.583333333333332  L 1.16 26.583333333333332  C 0.8458333333333334 26.583333333333332  0.5739583333333333 26.463758680555557  0.344375 26.224609375  C 0.11479166666666665 25.985460069444443  0 25.702256944444443  0 25.375  L 0 13.291666666666668  C 0 12.96440972222222  0.11479166666666665 12.68120659722222  0.344375 12.442057291666668  C 0.5739583333333333 12.202907986111112  0.8458333333333334 12.083333333333332  1.16 12.083333333333332  L 6.38 12.083333333333332  C 6.694166666666668 12.083333333333332  6.966041666666667 12.202907986111112  7.195625000000001 12.442057291666668  Z M 27.966874999999998 10.742838541666668  C 28.655625 11.460286458333332  29 12.309895833333332  29 13.291666666666668  C 29 14.374131944444445  28.667708333333337 15.311848958333336  28.003124999999997 16.104817708333336  C 28.184375000000003 16.658637152777775  28.275000000000002 17.13693576388889  28.275 17.539713541666664  C 28.311250000000005 18.49631076388889  28.05145833333334 19.35850694444444  27.495625 20.126302083333336  C 27.70104166666667 20.83116319444444  27.70104166666667 21.56749131944444  27.495625 22.335286458333332  C 27.314375000000002 23.052734375  26.988125 23.644314236111107  26.516875000000002 24.110026041666668  C 26.625625 25.519748263888893  26.329583333333336 26.658854166666668  25.62875 27.52734375  C 24.85541666666667 28.483940972222225  23.665208333333332 28.974826388888893  22.058125 29  L 21.405625 29  L 20.028125000000003 29  L 19.720000000000002 29  C 18.9225 29  18.052500000000002 28.902452256944443  17.11 28.707356770833332  C 16.1675 28.512261284722225  15.4334375 28.329752604166668  14.907812499999999 28.159830729166668  C 14.382187499999999 27.989908854166668  13.654166666666669 27.741319444444443  12.723749999999999 27.4140625  C 11.2375 26.872829861111107  10.282916666666667 26.595920138888893  9.860000000000001 26.583333333333332  C 9.545833333333334 26.570746527777775  9.273958333333335 26.448025173611107  9.044375 26.215169270833332  C 8.814791666666666 25.982313368055557  8.700000000000001 25.702256944444443  9 25.375  L 9 13.272786458333332  C 8.700000000000001 12.958116319444445  8.80875 12.684353298611109  9.026250000000001 12.451497395833332  C 9.24375 12.218641493055555  9.503541666666669 12.089626736111109  9.805625000000001 12.064453125  C 10.095625 12.039279513888886  10.554791666666668 11.667968749999996  11.183125 10.950520833333332  C 11.811458333333334 10.233072916666664  12.421666666666667 9.471571180555554  13.01375 8.666015625  C 13.835416666666669 7.570963541666668  14.445625000000003 6.815755208333332  14.844375 6.400390625  C 15.061875 6.173828125  15.249166666666667 5.871744791666668  15.40625 5.494140625  C 15.563333333333336 5.116536458333332  15.669062499999999 4.811306423611109  15.723437500000001 4.578450520833332  C 15.7778125 4.345594618055553  15.859375 3.96484375  15.968125 3.436197916666668  C 16.052708333333335 2.9453125  16.12822916666667 2.5614149305555527  16.1946875 2.284505208333332  C 16.261145833333334 2.0075954861111085  16.378958333333333 1.6803385416666679  16.548125000000002 1.302734375  C 16.717291666666668 0.9251302083333323  16.922708333333336 0.6104600694444441  17.164375 0.35872395833333226  C 17.393958333333334 0.11957465277777635  17.665833333333335 0  17.98 0  C 18.535833333333333 0  19.034270833333334 0.06608072916666774  19.475312499999998 0.1982421875  C 19.916354166666668 0.33040364583333226  20.27885416666667 0.4940321180555527  20.5628125 0.6891276041666677  C 20.846770833333334 0.8842230902777763  21.0884375 1.1391059027777763  21.287812499999998 1.4537760416666679  C 21.4871875 1.7684461805555527  21.6321875 2.0516493055555527  21.7228125 2.303385416666668  C 21.8134375 2.5551215277777763  21.885937499999997 2.869791666666668  21.9403125 3.247395833333332  C 21.9946875 3.625  22.024895833333336 3.908203125  22.0309375 4.097005208333332  C 22.03697916666667 4.285807291666668  22.04 4.53125  22.04 4.833333333333332  C 22.04 5.311631944444444  21.982604166666672 5.789930555555553  21.8678125 6.268229166666668  C 21.753020833333334 6.746527777777777  21.63822916666667 7.124131944444444  21.5234375 7.401041666666668  C 21.408645833333335 7.677951388888885  21.2425 8.030381944444445  21.025 8.458333333333332  C 20.98875 8.533854166666668  20.928333333333335 8.647135416666668  20.84375 8.798177083333332  C 20.75916666666667 8.94921875  20.692708333333336 9.087673611111109  20.644375 9.213541666666668  C 20.596041666666668 9.33940972222222  20.547708333333336 9.490451388888886  20.499375 9.666666666666668  L 25.52 9.666666666666668  C 26.4625 9.666666666666668  27.278125000000003 10.025390625  27.966874999999998 10.742838541666668  Z " fill-rule="evenodd" />
    </mask>
  </defs>
  <g transform="matrix(1 0 0 1 -382 -5458 )">
    <path d="M 4.295625 23.8173828125  C 4.525208333333334 23.584526909722225  4.64 23.298177083333332  4.64 22.958333333333332  C 4.64 22.631076388888893  4.525208333333334 22.347873263888893  4.295625 22.108723958333332  C 4.066041666666667 21.869574652777775  3.7941666666666665 21.75  3.48 21.75  C 3.15375 21.75  2.8788541666666667 21.869574652777775  2.6553125 22.108723958333332  C 2.4317708333333337 22.347873263888893  2.32 22.631076388888893  2.32 22.958333333333332  C 2.32 23.298177083333332  2.4317708333333337 23.584526909722225  2.6553125 23.8173828125  C 2.8788541666666667 24.050238715277775  3.15375 24.166666666666668  3.48 24.166666666666668  C 3.7941666666666665 24.166666666666668  4.066041666666667 24.050238715277775  4.295625 23.8173828125  Z M 7.195625000000001 12.442057291666668  C 7.425208333333333 12.68120659722222  7.54 12.96440972222222  8 13.291666666666668  L 8 25.375  C 7.54 25.702256944444443  7.425208333333333 25.985460069444443  7.195625000000001 26.224609375  C 6.966041666666667 26.463758680555557  6.694166666666668 26.583333333333332  6.38 26.583333333333332  L 1.16 26.583333333333332  C 0.8458333333333334 26.583333333333332  0.5739583333333333 26.463758680555557  0.344375 26.224609375  C 0.11479166666666665 25.985460069444443  0 25.702256944444443  0 25.375  L 0 13.291666666666668  C 0 12.96440972222222  0.11479166666666665 12.68120659722222  0.344375 12.442057291666668  C 0.5739583333333333 12.202907986111112  0.8458333333333334 12.083333333333332  1.16 12.083333333333332  L 6.38 12.083333333333332  C 6.694166666666668 12.083333333333332  6.966041666666667 12.202907986111112  7.195625000000001 12.442057291666668  Z M 27.966874999999998 10.742838541666668  C 28.655625 11.460286458333332  29 12.309895833333332  29 13.291666666666668  C 29 14.374131944444445  28.667708333333337 15.311848958333336  28.003124999999997 16.104817708333336  C 28.184375000000003 16.658637152777775  28.275000000000002 17.13693576388889  28.275 17.539713541666664  C 28.311250000000005 18.49631076388889  28.05145833333334 19.35850694444444  27.495625 20.126302083333336  C 27.70104166666667 20.83116319444444  27.70104166666667 21.56749131944444  27.495625 22.335286458333332  C 27.314375000000002 23.052734375  26.988125 23.644314236111107  26.516875000000002 24.110026041666668  C 26.625625 25.519748263888893  26.329583333333336 26.658854166666668  25.62875 27.52734375  C 24.85541666666667 28.483940972222225  23.665208333333332 28.974826388888893  22.058125 29  L 21.405625 29  L 20.028125000000003 29  L 19.720000000000002 29  C 18.9225 29  18.052500000000002 28.902452256944443  17.11 28.707356770833332  C 16.1675 28.512261284722225  15.4334375 28.329752604166668  14.907812499999999 28.159830729166668  C 14.382187499999999 27.989908854166668  13.654166666666669 27.741319444444443  12.723749999999999 27.4140625  C 11.2375 26.872829861111107  10.282916666666667 26.595920138888893  9.860000000000001 26.583333333333332  C 9.545833333333334 26.570746527777775  9.273958333333335 26.448025173611107  9.044375 26.215169270833332  C 8.814791666666666 25.982313368055557  8.700000000000001 25.702256944444443  9 25.375  L 9 13.272786458333332  C 8.700000000000001 12.958116319444445  8.80875 12.684353298611109  9.026250000000001 12.451497395833332  C 9.24375 12.218641493055555  9.503541666666669 12.089626736111109  9.805625000000001 12.064453125  C 10.095625 12.039279513888886  10.554791666666668 11.667968749999996  11.183125 10.950520833333332  C 11.811458333333334 10.233072916666664  12.421666666666667 9.471571180555554  13.01375 8.666015625  C 13.835416666666669 7.570963541666668  14.445625000000003 6.815755208333332  14.844375 6.400390625  C 15.061875 6.173828125  15.249166666666667 5.871744791666668  15.40625 5.494140625  C 15.563333333333336 5.116536458333332  15.669062499999999 4.811306423611109  15.723437500000001 4.578450520833332  C 15.7778125 4.345594618055553  15.859375 3.96484375  15.968125 3.436197916666668  C 16.052708333333335 2.9453125  16.12822916666667 2.5614149305555527  16.1946875 2.284505208333332  C 16.261145833333334 2.0075954861111085  16.378958333333333 1.6803385416666679  16.548125000000002 1.302734375  C 16.717291666666668 0.9251302083333323  16.922708333333336 0.6104600694444441  17.164375 0.35872395833333226  C 17.393958333333334 0.11957465277777635  17.665833333333335 0  17.98 0  C 18.535833333333333 0  19.034270833333334 0.06608072916666774  19.475312499999998 0.1982421875  C 19.916354166666668 0.33040364583333226  20.27885416666667 0.4940321180555527  20.5628125 0.6891276041666677  C 20.846770833333334 0.8842230902777763  21.0884375 1.1391059027777763  21.287812499999998 1.4537760416666679  C 21.4871875 1.7684461805555527  21.6321875 2.0516493055555527  21.7228125 2.303385416666668  C 21.8134375 2.5551215277777763  21.885937499999997 2.869791666666668  21.9403125 3.247395833333332  C 21.9946875 3.625  22.024895833333336 3.908203125  22.0309375 4.097005208333332  C 22.03697916666667 4.285807291666668  22.04 4.53125  22.04 4.833333333333332  C 22.04 5.311631944444444  21.982604166666672 5.789930555555553  21.8678125 6.268229166666668  C 21.753020833333334 6.746527777777777  21.63822916666667 7.124131944444444  21.5234375 7.401041666666668  C 21.408645833333335 7.677951388888885  21.2425 8.030381944444445  21.025 8.458333333333332  C 20.98875 8.533854166666668  20.928333333333335 8.647135416666668  20.84375 8.798177083333332  C 20.75916666666667 8.94921875  20.692708333333336 9.087673611111109  20.644375 9.213541666666668  C 20.596041666666668 9.33940972222222  20.547708333333336 9.490451388888886  20.499375 9.666666666666668  L 25.52 9.666666666666668  C 26.4625 9.666666666666668  27.278125000000003 10.025390625  27.966874999999998 10.742838541666668  Z " fill-rule="nonzero" fill="rgba(144, 144, 144, 1)" stroke="none" transform="matrix(1 0 0 1 382 5458 )" class="fill" />
    <path d="M 4.295625 23.8173828125  C 4.525208333333334 23.584526909722225  4.64 23.298177083333332  4.64 22.958333333333332  C 4.64 22.631076388888893  4.525208333333334 22.347873263888893  4.295625 22.108723958333332  C 4.066041666666667 21.869574652777775  3.7941666666666665 21.75  3.48 21.75  C 3.15375 21.75  2.8788541666666667 21.869574652777775  2.6553125 22.108723958333332  C 2.4317708333333337 22.347873263888893  2.32 22.631076388888893  2.32 22.958333333333332  C 2.32 23.298177083333332  2.4317708333333337 23.584526909722225  2.6553125 23.8173828125  C 2.8788541666666667 24.050238715277775  3.15375 24.166666666666668  3.48 24.166666666666668  C 3.7941666666666665 24.166666666666668  4.066041666666667 24.050238715277775  4.295625 23.8173828125  Z " stroke-width="0" stroke-dasharray="0" stroke="rgba(255, 255, 255, 0)" fill="none" transform="matrix(1 0 0 1 382 5458 )" class="stroke" mask="url(#Clip48)" />
    <path d="M 7.195625000000001 12.442057291666668  C 7.425208333333333 12.68120659722222  7.54 12.96440972222222  8 13.291666666666668  L 8 25.375  C 7.54 25.702256944444443  7.425208333333333 25.985460069444443  7.195625000000001 26.224609375  C 6.966041666666667 26.463758680555557  6.694166666666668 26.583333333333332  6.38 26.583333333333332  L 1.16 26.583333333333332  C 0.8458333333333334 26.583333333333332  0.5739583333333333 26.463758680555557  0.344375 26.224609375  C 0.11479166666666665 25.985460069444443  0 25.702256944444443  0 25.375  L 0 13.291666666666668  C 0 12.96440972222222  0.11479166666666665 12.68120659722222  0.344375 12.442057291666668  C 0.5739583333333333 12.202907986111112  0.8458333333333334 12.083333333333332  1.16 12.083333333333332  L 6.38 12.083333333333332  C 6.694166666666668 12.083333333333332  6.966041666666667 12.202907986111112  7.195625000000001 12.442057291666668  Z " stroke-width="0" stroke-dasharray="0" stroke="rgba(255, 255, 255, 0)" fill="none" transform="matrix(1 0 0 1 382 5458 )" class="stroke" mask="url(#Clip48)" />
    <path d="M 27.966874999999998 10.742838541666668  C 28.655625 11.460286458333332  29 12.309895833333332  29 13.291666666666668  C 29 14.374131944444445  28.667708333333337 15.311848958333336  28.003124999999997 16.104817708333336  C 28.184375000000003 16.658637152777775  28.275000000000002 17.13693576388889  28.275 17.539713541666664  C 28.311250000000005 18.49631076388889  28.05145833333334 19.35850694444444  27.495625 20.126302083333336  C 27.70104166666667 20.83116319444444  27.70104166666667 21.56749131944444  27.495625 22.335286458333332  C 27.314375000000002 23.052734375  26.988125 23.644314236111107  26.516875000000002 24.110026041666668  C 26.625625 25.519748263888893  26.329583333333336 26.658854166666668  25.62875 27.52734375  C 24.85541666666667 28.483940972222225  23.665208333333332 28.974826388888893  22.058125 29  L 21.405625 29  L 20.028125000000003 29  L 19.720000000000002 29  C 18.9225 29  18.052500000000002 28.902452256944443  17.11 28.707356770833332  C 16.1675 28.512261284722225  15.4334375 28.329752604166668  14.907812499999999 28.159830729166668  C 14.382187499999999 27.989908854166668  13.654166666666669 27.741319444444443  12.723749999999999 27.4140625  C 11.2375 26.872829861111107  10.282916666666667 26.595920138888893  9.860000000000001 26.583333333333332  C 9.545833333333334 26.570746527777775  9.273958333333335 26.448025173611107  9.044375 26.215169270833332  C 8.814791666666666 25.982313368055557  8.700000000000001 25.702256944444443  9 25.375  L 9 13.272786458333332  C 8.700000000000001 12.958116319444445  8.80875 12.684353298611109  9.026250000000001 12.451497395833332  C 9.24375 12.218641493055555  9.503541666666669 12.089626736111109  9.805625000000001 12.064453125  C 10.095625 12.039279513888886  10.554791666666668 11.667968749999996  11.183125 10.950520833333332  C 11.811458333333334 10.233072916666664  12.421666666666667 9.471571180555554  13.01375 8.666015625  C 13.835416666666669 7.570963541666668  14.445625000000003 6.815755208333332  14.844375 6.400390625  C 15.061875 6.173828125  15.249166666666667 5.871744791666668  15.40625 5.494140625  C 15.563333333333336 5.116536458333332  15.669062499999999 4.811306423611109  15.723437500000001 4.578450520833332  C 15.7778125 4.345594618055553  15.859375 3.96484375  15.968125 3.436197916666668  C 16.052708333333335 2.9453125  16.12822916666667 2.5614149305555527  16.1946875 2.284505208333332  C 16.261145833333334 2.0075954861111085  16.378958333333333 1.6803385416666679  16.548125000000002 1.302734375  C 16.717291666666668 0.9251302083333323  16.922708333333336 0.6104600694444441  17.164375 0.35872395833333226  C 17.393958333333334 0.11957465277777635  17.665833333333335 0  17.98 0  C 18.535833333333333 0  19.034270833333334 0.06608072916666774  19.475312499999998 0.1982421875  C 19.916354166666668 0.33040364583333226  20.27885416666667 0.4940321180555527  20.5628125 0.6891276041666677  C 20.846770833333334 0.8842230902777763  21.0884375 1.1391059027777763  21.287812499999998 1.4537760416666679  C 21.4871875 1.7684461805555527  21.6321875 2.0516493055555527  21.7228125 2.303385416666668  C 21.8134375 2.5551215277777763  21.885937499999997 2.869791666666668  21.9403125 3.247395833333332  C 21.9946875 3.625  22.024895833333336 3.908203125  22.0309375 4.097005208333332  C 22.03697916666667 4.285807291666668  22.04 4.53125  22.04 4.833333333333332  C 22.04 5.311631944444444  21.982604166666672 5.789930555555553  21.8678125 6.268229166666668  C 21.753020833333334 6.746527777777777  21.63822916666667 7.124131944444444  21.5234375 7.401041666666668  C 21.408645833333335 7.677951388888885  21.2425 8.030381944444445  21.025 8.458333333333332  C 20.98875 8.533854166666668  20.928333333333335 8.647135416666668  20.84375 8.798177083333332  C 20.75916666666667 8.94921875  20.692708333333336 9.087673611111109  20.644375 9.213541666666668  C 20.596041666666668 9.33940972222222  20.547708333333336 9.490451388888886  20.499375 9.666666666666668  L 25.52 9.666666666666668  C 26.4625 9.666666666666668  27.278125000000003 10.025390625  27.966874999999998 10.742838541666668  Z " stroke-width="0" stroke-dasharray="0" stroke="rgba(255, 255, 255, 0)" fill="none" transform="matrix(1 0 0 1 382 5458 )" class="stroke" mask="url(#Clip48)" />
  </g>
</svg>